<svg width="40" height="40" viewBox="0 0 40 40" fill="none" xmlns="http://www.w3.org/2000/svg">
<path d="M38.9001 4.10156C38.9001 2.99699 38.0046 2.10156 36.9001 2.10156H16.9951C15.8905 2.10156 14.9951 2.99699 14.9951 4.10156V19.2499H26.0346V26.1621L33.5629 19.2499H36.9001C38.0046 19.2499 38.9001 18.3545 38.9001 17.2499V4.10156Z" stroke="black" stroke-width="2" stroke-linejoin="bevel"/>
<path d="M27 15C29.7614 15 32 12.7614 32 10C32 7.23858 29.7614 5 27 5C24.2386 5 22 7.23858 22 10C22 12.7614 24.2386 15 27 15Z" fill="#FF8522"/>
<path d="M30 8L26.4733 12L24 9.19883" stroke="white" stroke-width="2" stroke-linejoin="round"/>
<path d="M12.9402 23.8022C10.7579 23.8022 8.70748 22.9525 7.1675 21.4071C3.98193 18.2196 3.98193 13.0377 7.1675 9.85013C8.71188 8.30479 10.7623 7.45508 12.9446 7.45508C15.127 7.45508 17.1774 8.30479 18.7174 9.85013C21.9029 13.0377 21.9029 18.2196 18.7174 21.4071C17.173 22.9481 15.1226 23.8022 12.9446 23.8022H12.9402Z" fill="white"/>
<path d="M12.9406 20.4985C15.6282 20.4985 17.8069 18.3184 17.8069 15.6291C17.8069 12.9398 15.6282 10.7598 12.9406 10.7598C10.253 10.7598 8.07422 12.9398 8.07422 15.6291C8.07422 18.3184 10.253 20.4985 12.9406 20.4985Z" fill="white" stroke="black" stroke-width="2" stroke-linejoin="bevel"/>
<path d="M1.07324 37.7631L2.92122 29.4949C3.48882 26.9501 5.75039 25.1406 8.35517 25.1406H17.5203C20.1251 25.1406 22.3866 26.9501 22.9542 29.4949L24.8022 37.7631" fill="white"/>
<path d="M1.07324 37.7631L2.92122 29.4949C3.48882 26.9501 5.75039 25.1406 8.35517 25.1406H17.5203C20.1251 25.1406 22.3866 26.9501 22.9542 29.4949L24.8022 37.7631" stroke="black" stroke-width="2" stroke-linejoin="bevel"/>
</svg>
