<svg width="40" height="40" viewBox="0 0 40 40" fill="none" xmlns="http://www.w3.org/2000/svg">
<path d="M20 2C29.9253 2 38 10.0747 38 20" stroke="#FF8522" stroke-width="2" stroke-miterlimit="10"/>
<path d="M20 8C26.6193 8 32 13.3807 32 20" stroke="#FF8522" stroke-width="2" stroke-miterlimit="10"/>
<path d="M20 14C23.3114 14 26 16.6948 26 20" stroke="#FF8522" stroke-width="2" stroke-miterlimit="10"/>
<path d="M31.9968 32.4334C31.9372 32.8976 31.717 33.3736 31.4193 33.6652L29.2346 35.8491C21.7934 42.0794 12.3461 32.8023 12.2509 32.7071L7.30993 27.7621C7.21468 27.6669 -2.06595 18.2232 4.13106 10.8147L6.3515 8.59507C6.6432 8.30348 7.11943 8.08331 7.58376 8.01785C7.67306 8.00595 7.76235 8 7.84569 8C8.19096 8 8.47075 8.09521 8.63148 8.25588L13.251 13.5817C13.8046 14.1351 13.8046 15.0337 13.251 15.5871L11.5663 17.2711C11.1555 17.7174 10.8579 18.1399 10.6733 18.5624C10.3043 19.5681 9.72087 22.2102 12.2509 24.9356L15.0904 27.774C17.805 30.2912 20.4362 29.708 21.4779 29.3212C21.8649 29.1486 22.2875 28.8571 22.7518 28.4286L24.4187 26.7565C24.9544 26.2209 25.8593 26.1912 26.4546 26.7862L31.7289 31.3623C31.9491 31.5944 32.0384 31.9812 31.9848 32.4334H31.9968Z" stroke="black" stroke-width="2" stroke-miterlimit="10"/>
</svg>
