<svg width="40" height="40" viewBox="0 0 40 40" fill="none" xmlns="http://www.w3.org/2000/svg">
<g style="mix-blend-mode:darken">
<path d="M34.6222 31.7793L34.3219 31.4018H33.8395H16.8757C14.6262 31.4018 12.8203 29.6002 12.8203 27.405V15.4245C12.8203 13.2293 14.6262 11.4277 16.8757 11.4277H34.4722H34.4781C36.7277 11.4277 38.5335 13.2293 38.5335 15.4245V36.4693C38.5335 36.4886 38.5307 36.4976 38.53 36.4996C38.5291 36.502 38.5282 36.5038 38.5265 36.506C38.5221 36.5117 38.508 36.5255 38.4809 36.5347C38.4538 36.544 38.4321 36.5424 38.4217 36.5397C38.4172 36.5385 38.4137 36.537 38.4099 36.5345C38.4064 36.5323 38.3974 36.5258 38.3847 36.5097L38.3827 36.5072L34.6222 31.7793Z" stroke="black" stroke-width="2"/>
</g>
<path d="M6.06135 3H23.6578C26.4486 3 28.7132 5.23831 28.7132 7.99675V19.9773C28.7132 22.7357 26.4486 24.974 23.6578 24.974H6.69401L2.93348 29.7019C2.30081 30.5026 1 30.0584 1 29.0416V7.99675C1.00591 5.23831 3.27051 3 6.06135 3Z" fill="white" stroke="black" stroke-width="2" stroke-linejoin="bevel"/>
<g style="mix-blend-mode:darken">
<path d="M8.69824 11.082H21.7537" stroke="#FF8522" stroke-width="2" stroke-miterlimit="10"/>
</g>
<g style="mix-blend-mode:darken">
<path d="M8.69824 17.1543H21.7537" stroke="#FF8522" stroke-width="2" stroke-miterlimit="10"/>
</g>
</svg>
