<svg width="1196" height="488" viewBox="0 0 1196 488" fill="none" xmlns="http://www.w3.org/2000/svg">
<line x1="100.5" y1="294" x2="100.5" y2="369" stroke="#DDDDDD"/>
<line x1="548.5" y1="294" x2="548.5" y2="369" stroke="#DDDDDD"/>
<line x1="548" y1="294.5" x2="100" y2="294.5" stroke="#DDDDDD"/>
<line x1="324.5" y1="222" x2="324.5" y2="366" stroke="#DDDDDD"/>
<line x1="872.5" y1="386" x2="872.5" y2="461" stroke="#DDDDDD"/>
<line x1="1096.5" y1="386" x2="1096.5" y2="461" stroke="#DDDDDD"/>
<line x1="624.5" y1="58" x2="624.5" y2="214" stroke="#DDDDDD"/>
<line x1="893" y1="214.5" x2="424" y2="214.5" stroke="#DDDDDD"/>
<line x1="1096" y1="386.5" x2="872" y2="386.5" stroke="#DDDDDD"/>
<line x1="893" y1="119.5" x2="625" y2="119.5" stroke="#DDDDDD"/>
<line x1="984.5" y1="242" x2="984.5" y2="386" stroke="#DDDDDD"/>
<rect x="524" width="200" height="64" rx="4" fill="#FF8522"/>
<path d="M605.628 23.0234V40.7969H603.265V31.8711H601.546V39.9375H599.261V23.3164H601.546V29.8789H603.265V23.0234H605.628ZM597.386 25.0742V27.0859H593.265V34.6641C594.984 34.6543 596.507 34.5664 598.226 34.2539L598.402 36.2852C596.234 36.6953 594.339 36.7539 591.995 36.7734H590.765V25.0742H597.386ZM623.612 36.832V38.8242H607.342V36.832H611.385V33.4531H608.69V31.4414H611.073V26.4414H608.612V24.4492H622.245V26.4414H619.745V31.4414H622.166V33.4531H619.491V36.832H623.612ZM613.573 31.4414H617.284V26.4414H613.573V31.4414ZM613.885 36.832H616.991V33.4531H613.885V36.832ZM639.31 23.0234V40.8359H636.791V23.0234H639.31ZM629.662 24.2734C632.337 24.2734 634.33 26.7344 634.33 30.6016C634.33 34.5078 632.337 36.9492 629.662 36.9492C626.927 36.9492 624.935 34.5078 624.955 30.6016C624.935 26.7344 626.927 24.2734 629.662 24.2734ZM629.662 26.5195C628.275 26.5195 627.357 27.9648 627.357 30.6016C627.357 33.2578 628.275 34.6836 629.662 34.6836C631.009 34.6836 631.927 33.2578 631.927 30.6016C631.927 27.9648 631.009 26.5195 629.662 26.5195ZM648.055 27.0469C648.036 30.2305 649.403 33.4531 652.255 34.8203L650.751 36.8125C648.846 35.875 647.567 34.1172 646.825 31.9688C646.054 34.2734 644.677 36.1582 642.665 37.1445L641.122 35.1328C644.13 33.7461 645.555 30.3477 645.555 27.0469V24.3906H648.055V27.0469ZM655.536 23.0234V29.8789H658.153V31.9883H655.536V40.7969H653.036V23.0234H655.536Z" fill="white"/>
<rect x="884.5" y="186.5" width="199" height="55" rx="3.5" fill="white"/>
<rect x="884.5" y="186.5" width="199" height="55" rx="3.5" stroke="#FF8522"/>
<path d="M956.695 205.043V215.277H954.214V213.539H950.211V211.547H954.214V209.848H950.386C949.283 212.66 946.763 214.594 942.847 215.668L941.871 213.695C945.963 212.621 947.964 210.668 948.316 208.227H942.828V206.234H951.031C951.031 206.811 950.992 207.367 950.914 207.895H954.214V205.043H956.695ZM950.777 215.492C954.39 215.492 956.812 216.879 956.832 219.086C956.812 221.312 954.39 222.719 950.777 222.719C947.125 222.719 944.683 221.312 944.703 219.086C944.683 216.879 947.125 215.492 950.777 215.492ZM950.777 217.445C948.531 217.426 947.183 217.992 947.183 219.086C947.183 220.18 948.531 220.746 950.777 220.746C952.984 220.746 954.332 220.18 954.332 219.086C954.332 217.992 952.984 217.426 950.777 217.445ZM963.761 205.98C965.177 205.98 966.417 206.498 967.276 207.367H971.3V205.023H973.78V215.434H971.3V213.305H967.257C966.397 214.164 965.167 214.682 963.761 214.672C961.065 214.691 959.014 212.836 959.034 210.336C959.014 207.797 961.065 205.98 963.761 205.98ZM963.761 208.109C962.374 208.109 961.378 208.93 961.397 210.336C961.378 211.703 962.374 212.582 963.761 212.562C965.108 212.582 966.085 211.703 966.085 210.336C966.085 208.93 965.108 208.109 963.761 208.109ZM967.706 215.805C971.475 215.805 973.819 217.094 973.839 219.301C973.819 221.508 971.475 222.797 967.706 222.797C963.956 222.797 961.593 221.508 961.593 219.301C961.593 217.094 963.956 215.805 967.706 215.805ZM967.706 217.699C965.343 217.699 964.034 218.227 964.034 219.301C964.034 220.336 965.343 220.863 967.706 220.863C970.108 220.863 971.397 220.336 971.397 219.301C971.397 218.227 970.108 217.699 967.706 217.699ZM968.35 209.34C968.409 209.652 968.448 209.994 968.448 210.336C968.448 210.678 968.409 211 968.35 211.312H971.3V209.34H968.35ZM982.779 209.867C982.779 212.738 984.244 215.805 987.232 217.055L985.885 219.008C983.785 218.119 982.34 216.352 981.549 214.184C980.738 216.537 979.264 218.49 977.174 219.457L975.748 217.484C978.697 216.176 980.221 212.875 980.221 209.867V208.773H976.451V206.742H986.49V208.773H982.779V209.867ZM990.768 205.023V222.797H988.248V205.023H990.768ZM1008.03 205.043V218.461H1005.53V217.055H1002.13V215.355H1005.53V205.043H1008.03ZM1008.42 220.492V222.484H995.177V217.172H997.657V214.809C996.066 214.877 994.552 214.887 993.204 214.887L992.911 212.914C996.173 212.895 1000.57 212.855 1004.32 212.387L1004.45 214.164C1003.05 214.398 1001.59 214.564 1000.16 214.672V218.051H997.657V220.492H1008.42ZM998.693 205.648C1001.27 205.629 1003.13 206.938 1003.13 208.832C1003.13 210.727 1001.27 211.957 998.693 211.957C996.056 211.957 994.22 210.727 994.22 208.832C994.22 206.938 996.036 205.629 998.693 205.648ZM998.693 207.465C997.423 207.465 996.564 207.953 996.583 208.832C996.564 209.691 997.423 210.16 998.693 210.16C999.884 210.16 1000.74 209.691 1000.76 208.832C1000.74 207.953 999.884 207.465 998.693 207.465ZM1026.31 215.277V217.23H1019.35V222.797H1016.89V217.23H1010.04V215.277H1026.31ZM1014.41 205.707V207.758H1021.87V205.707H1024.37V213.559H1011.95V205.707H1014.41ZM1014.41 211.566H1021.87V209.711H1014.41V211.566Z" fill="#FF8522"/>
<rect x="224.5" y="186.5" width="199" height="55" rx="3.5" fill="white"/>
<rect x="224.5" y="186.5" width="199" height="55" rx="3.5" stroke="#FF8522"/>
<path d="M259.363 205.023V211.977H261.98V214.027H259.363V222.797H256.902V205.023H259.363ZM255.691 207.68V209.672H245.242V207.68H249.265V205.297H251.765V207.68H255.691ZM250.515 210.668C253.113 210.668 255.046 212.426 255.046 214.906C255.046 217.387 253.113 219.145 250.515 219.145C247.898 219.145 245.964 217.387 245.964 214.906C245.964 212.426 247.898 210.668 250.515 210.668ZM250.515 212.68C249.265 212.699 248.347 213.539 248.347 214.906C248.347 216.293 249.265 217.113 250.515 217.094C251.765 217.113 252.664 216.293 252.664 214.906C252.664 213.539 251.765 212.699 250.515 212.68ZM277.405 205.043V218.031H274.925V213.812H270.862C270.003 214.721 268.763 215.277 267.386 215.277C264.69 215.277 262.639 213.324 262.659 210.688C262.639 208.012 264.69 206.078 267.386 206.059C268.763 206.068 269.993 206.615 270.862 207.523H274.925V205.043H277.405ZM277.835 220.492V222.484H265.608V216.723H268.108V220.492H277.835ZM267.386 208.285C265.999 208.285 265.003 209.184 265.022 210.688C265.003 212.172 265.999 213.07 267.386 213.07C268.694 213.07 269.71 212.172 269.71 210.688C269.71 209.184 268.694 208.285 267.386 208.285ZM271.936 209.516C272.024 209.887 272.073 210.277 272.073 210.688C272.073 211.078 272.024 211.459 271.936 211.82H274.925V209.516H271.936ZM294.256 206.566V208.305C294.236 210.473 294.236 212.914 293.592 216.488L291.15 216.273C291.736 213.021 291.756 210.6 291.756 208.539H281.111V206.566H294.256ZM295.721 218.598V220.629H279.51V218.598H282.967V213.012H285.447V218.598H287.4V213.012H289.861V218.598H295.721ZM312.806 213.324V215.297H308.9V216.957H310.833V222.797H308.353V218.91H298.392V216.957H300.423V215.297H296.595V213.324H312.806ZM304.7 205.375C308.607 205.355 311.146 206.703 311.165 208.871C311.146 211.039 308.607 212.387 304.7 212.387C300.775 212.387 298.216 211.039 298.216 208.871C298.216 206.703 300.775 205.355 304.7 205.375ZM304.7 207.309C302.22 207.309 300.794 207.855 300.814 208.871C300.794 209.926 302.22 210.453 304.7 210.453C307.161 210.453 308.587 209.926 308.587 208.871C308.587 207.855 307.161 207.309 304.7 207.309ZM302.943 216.957H306.439V215.297H302.943V216.957ZM328.089 206.801V208.227C328.07 209.906 328.07 212.094 327.601 215.043L325.14 214.848C325.541 212.27 325.58 210.365 325.609 208.793H318.871V206.801H328.089ZM323.656 211.898V217.055C325.404 216.986 327.181 216.859 328.812 216.645L328.968 218.5C325.316 219.125 321.273 219.184 318.168 219.164L317.933 217.172C318.929 217.162 320.043 217.162 321.195 217.133V211.898H323.656ZM332.171 205.023V212.172H334.593V214.242H332.171V222.797H329.652V205.023H332.171ZM345.721 206.605V208.578H335.175V206.605H339.218V204.926H341.698V206.605H345.721ZM340.448 209.145C343.026 209.145 344.823 210.473 344.823 212.426C344.823 214.379 343.026 215.707 340.448 215.707C337.87 215.707 336.034 214.379 336.034 212.426C336.034 210.473 337.87 209.145 340.448 209.145ZM340.448 211.02C339.257 211.02 338.456 211.508 338.475 212.426C338.456 213.324 339.257 213.793 340.448 213.793C341.639 213.793 342.46 213.324 342.46 212.426C342.46 211.508 341.639 211.02 340.448 211.02ZM349.276 205.023V209.633H351.679V211.664H349.276V216.176H346.776V205.023H349.276ZM349.276 216.918V222.797H346.776V218.91H337.304V216.918H349.276ZM367.24 205.043V218.031H364.76V213.812H360.697C359.838 214.721 358.598 215.277 357.221 215.277C354.525 215.277 352.475 213.324 352.494 210.688C352.475 208.012 354.525 206.078 357.221 206.059C358.598 206.068 359.828 206.615 360.697 207.523H364.76V205.043H367.24ZM367.67 220.492V222.484H355.443V216.723H357.943V220.492H367.67ZM357.221 208.285C355.834 208.285 354.838 209.184 354.857 210.688C354.838 212.172 355.834 213.07 357.221 213.07C358.529 213.07 359.545 212.172 359.545 210.688C359.545 209.184 358.529 208.285 357.221 208.285ZM361.771 209.516C361.859 209.887 361.908 210.277 361.908 210.688C361.908 211.078 361.859 211.459 361.771 211.82H364.76V209.516H361.771ZM383.661 206.059V207.66C383.661 209.32 383.661 211.137 383.212 213.617H385.556V215.629H378.622V222.816H376.122V215.629H369.345V213.617H380.693C381.142 211.322 381.181 209.584 381.181 208.051H371.2V206.059H383.661ZM402.7 218.676V220.668H386.43V218.676H393.227V214.652H395.707V218.676H402.7ZM395.786 207.309C395.786 209.848 398.071 212.523 402.133 213.148L401.079 215.219C397.954 214.652 395.629 212.982 394.457 210.766C393.286 212.973 390.981 214.662 387.875 215.219L386.821 213.148C390.844 212.523 393.11 209.828 393.129 207.309V206.039H395.786V207.309Z" fill="#FF8522"/>
<rect x="0.5" y="354.5" width="199" height="55" rx="3.5" fill="white"/>
<rect x="0.5" y="354.5" width="199" height="55" rx="3.5" stroke="#AAAAAA"/>
<path d="M52.8875 374.703V376.5C52.8875 378.688 52.8875 381.07 52.243 384.527L50.1141 384.312C50.7195 381.051 50.7195 378.629 50.7195 376.5V376.441H40.0359V374.703H52.8875ZM54.5086 386.676V388.453H38.4148V386.676H42.0281V381.051H44.1961V386.676H46.4422V381.051H48.5711V386.676H54.5086ZM70.8125 373.082V390.738H68.7422V381.793H66.9258V389.879H64.875V373.395H66.9258V379.996H68.7422V373.082H70.8125ZM60.9883 377.594C60.9883 380.738 62.043 383.629 64.6602 384.977L63.3906 386.637C61.7109 385.738 60.6074 384.186 59.9922 382.262C59.3867 384.459 58.2832 386.227 56.5352 387.262L55.207 385.602C57.8242 384.117 58.8789 381.031 58.8789 377.594V376.754H55.7344V375.016H63.8789V376.754H60.9883V377.594ZM87.7414 373.082V390.738H85.6516V381.676H83.757V389.918H81.7258V373.551H83.757V379.918H85.6516V373.082H87.7414ZM80.2219 375.309C80.2219 380.074 78.718 384.176 73.6984 387.047L72.4484 385.543C76.2082 383.365 77.8 380.572 78.1125 377.047H73.2687V375.309H80.2219ZM92.4242 373.863V376.109H96.5453V373.863H98.6938V381.559H90.2758V373.863H92.4242ZM92.4242 379.84H96.5453V377.75H92.4242V379.84ZM103.596 373.082V376.656H106.057V378.414H103.596V382.125H101.428V373.082H103.596ZM103.596 382.828V387.457H94.2211V388.863H104.143V390.582H92.0727V385.875H101.428V384.527H92.0531V382.828H103.596ZM126.087 373.102V386.051H123.919V381.676H119.72C118.87 382.623 117.62 383.199 116.204 383.199C113.548 383.199 111.536 381.285 111.536 378.688C111.536 376.051 113.548 374.156 116.204 374.156C117.61 374.156 118.85 374.723 119.7 375.66H123.919V373.102H126.087ZM126.536 388.629V390.387H114.505V384.723H116.673V388.629H126.536ZM116.204 376.09C114.68 376.09 113.606 377.105 113.606 378.688C113.606 380.25 114.68 381.266 116.204 381.266C117.649 381.266 118.743 380.25 118.762 378.688C118.743 377.105 117.649 376.09 116.204 376.09ZM120.657 377.418C120.764 377.818 120.833 378.238 120.833 378.688C120.833 379.117 120.774 379.527 120.677 379.918H123.919V377.418H120.657ZM142.508 374.156V375.738C142.508 377.389 142.508 379.195 142.039 381.695H144.48V383.453H137.469V390.758H135.281V383.453H128.387V381.695H139.832C140.32 379.293 140.34 377.496 140.34 375.914H130.281V374.156H142.508ZM154.984 374.117V375.875H148.655V377.516H154.476V379.215H148.655V380.953C151.956 380.943 153.968 380.885 156.292 380.504L156.507 382.203C153.968 382.652 151.761 382.691 147.952 382.672H146.448V374.117H154.984ZM160.179 373.102V383.59H157.991V373.102H160.179ZM160.179 384.371V390.523H148.46V384.371H160.179ZM150.609 386.051V388.766H158.05V386.051H150.609Z" fill="black"/>
<rect x="224.5" y="354.5" width="199" height="55" rx="3.5" fill="white"/>
<rect x="224.5" y="354.5" width="199" height="55" rx="3.5" stroke="#AAAAAA"/>
<path d="M305.003 373.082V390.758H302.816V373.082H305.003ZM299.925 374.684V376.461H293.597V384.664C296.849 384.654 298.89 384.557 301.234 384.137L301.448 385.934C298.929 386.402 296.644 386.5 292.913 386.5H291.409V374.684H299.925ZM313.729 378.102C313.729 380.836 315.35 383.941 318.143 385.23L316.932 386.949C314.94 386.012 313.465 384.117 312.674 381.91C311.873 384.332 310.33 386.402 308.299 387.379L307.03 385.68C309.842 384.352 311.541 381.031 311.561 378.102V376.617H307.713V374.82H317.42V376.617H313.729V378.102ZM321.229 373.082V379.957H323.944V381.773H321.229V390.738H319.061V373.082H321.229ZM339.193 373.102V385.855H337.005V373.102H339.193ZM339.681 388.629V390.387H327.513V384.566H329.701V388.629H339.681ZM329.564 374.254C332.24 374.254 334.31 376.109 334.31 378.668C334.31 381.285 332.24 383.102 329.564 383.102C326.869 383.102 324.798 381.285 324.798 378.668C324.798 376.109 326.869 374.254 329.564 374.254ZM329.564 376.148C328.06 376.148 326.908 377.145 326.927 378.668C326.908 380.23 328.06 381.207 329.564 381.207C331.029 381.207 332.181 380.23 332.181 378.668C332.181 377.145 331.029 376.148 329.564 376.148ZM351.083 374.117V375.875H344.755V377.516H350.575V379.215H344.755V380.953C348.055 380.943 350.067 380.885 352.391 380.504L352.606 382.203C350.067 382.652 347.86 382.691 344.052 382.672H342.548V374.117H351.083ZM356.278 373.102V383.59H354.091V373.102H356.278ZM356.278 384.371V390.523H344.559V384.371H356.278ZM346.708 386.051V388.766H354.149V386.051H346.708Z" fill="black"/>
<rect x="448.5" y="354.5" width="199" height="55" rx="3.5" fill="white"/>
<rect x="448.5" y="354.5" width="199" height="55" rx="3.5" stroke="#AAAAAA"/>
<path d="M502.509 380.25V381.969H495.516V383.297H500.497V387.633H490.458V388.922H500.985V390.582H488.329V386.07H498.368V384.938H488.309V383.297H493.348V381.969H486.415V380.25H502.509ZM500.438 373.629V379.137H488.446V373.629H500.438ZM490.575 375.328V377.438H498.27V375.328H490.575ZM519.613 383.512V385.211H515.727V390.738H513.539V385.211H509.574V390.738H507.406V385.211H503.48V383.512H519.613ZM517.738 373.668V378.609H507.602V380.289H518.129V382.047H505.414V376.988H515.512V375.445H505.375V373.668H517.738ZM530.448 374.391V375.445C530.429 376.656 530.429 378.395 530.019 380.641L527.87 380.445C528.212 378.619 528.28 377.271 528.32 376.188H521.445V374.391H530.448ZM525.995 378.414V381.93C527.821 381.861 529.696 381.725 531.405 381.48L531.523 383.043C527.851 383.707 523.691 383.766 520.585 383.785L520.39 382.047C521.435 382.037 522.607 382.027 523.847 382.008V378.414H525.995ZM534.667 373.082V378.59H536.952V380.406H534.667V386.305H532.441V373.082H534.667ZM535.234 388.629V390.387H523.027V385.133H525.214V388.629H535.234ZM552.377 373.082V390.758H550.229V373.082H552.377ZM546.948 374.625V381.246H540.873V384.801C543.657 384.781 546.059 384.645 548.803 384.176L548.998 385.953C545.991 386.48 543.354 386.578 540.19 386.578H538.647V379.527H544.741V376.383H538.627V374.625H546.948ZM574.087 373.102V386.051H571.919V381.676H567.72C566.87 382.623 565.62 383.199 564.204 383.199C561.548 383.199 559.536 381.285 559.536 378.688C559.536 376.051 561.548 374.156 564.204 374.156C565.61 374.156 566.85 374.723 567.7 375.66H571.919V373.102H574.087ZM574.536 388.629V390.387H562.505V384.723H564.673V388.629H574.536ZM564.204 376.09C562.68 376.09 561.606 377.105 561.606 378.688C561.606 380.25 562.68 381.266 564.204 381.266C565.649 381.266 566.743 380.25 566.762 378.688C566.743 377.105 565.649 376.09 564.204 376.09ZM568.657 377.418C568.764 377.818 568.833 378.238 568.833 378.688C568.833 379.117 568.774 379.527 568.677 379.918H571.919V377.418H568.657ZM590.508 374.156V375.738C590.508 377.389 590.508 379.195 590.039 381.695H592.48V383.453H585.469V390.758H583.281V383.453H576.387V381.695H587.832C588.32 379.293 588.34 377.496 588.34 375.914H578.281V374.156H590.508ZM602.984 374.117V375.875H596.655V377.516H602.476V379.215H596.655V380.953C599.956 380.943 601.968 380.885 604.292 380.504L604.507 382.203C601.968 382.652 599.761 382.691 595.952 382.672H594.448V374.117H602.984ZM608.179 373.102V383.59H605.991V373.102H608.179ZM608.179 384.371V390.523H596.46V384.371H608.179ZM598.609 386.051V388.766H606.05V386.051H598.609Z" fill="black"/>
<rect x="884.5" y="281.5" width="199" height="55" rx="3.5" fill="#FFF6F1"/>
<rect x="884.5" y="281.5" width="199" height="55" rx="3.5" stroke="#FF8522"/>
<path d="M937.073 301.566V303.246C937.073 305.473 937.073 307.973 936.35 311.742L933.85 311.488C934.524 308.129 934.554 305.629 934.573 303.539H924.104V301.566H937.073ZM938.636 313.598V315.629H922.425V313.598H928.225V307.484H930.706V313.598H938.636ZM954.783 300.043V310.453H952.42V306.156H950.818V310.375H948.475V300.355H950.818V304.125H952.42V300.043H954.783ZM954.783 311.137V317.797H952.303V313.148H942.381V311.137H954.783ZM947.264 301.254C947.264 305.727 945.115 308.734 940.486 310.57L939.314 308.715C942.664 307.484 944.344 305.648 944.725 303.246H940.174V301.254H947.264ZM963.489 304.867C963.489 307.738 964.954 310.805 967.943 312.055L966.595 314.008C964.495 313.119 963.05 311.352 962.259 309.184C961.448 311.537 959.974 313.49 957.884 314.457L956.458 312.484C959.407 311.176 960.931 307.875 960.931 304.867V303.773H957.161V301.742H967.2V303.773H963.489V304.867ZM971.478 300.023V317.797H968.958V300.023H971.478ZM988.739 300.043V313.461H986.239V312.055H982.84V310.355H986.239V300.043H988.739ZM989.129 315.492V317.484H975.887V312.172H978.368V309.809C976.776 309.877 975.262 309.887 973.914 309.887L973.621 307.914C976.883 307.895 981.278 307.855 985.028 307.387L985.164 309.164C983.758 309.398 982.303 309.564 980.868 309.672V313.051H978.368V315.492H989.129ZM979.403 300.648C981.981 300.629 983.836 301.938 983.836 303.832C983.836 305.727 981.981 306.957 979.403 306.957C976.766 306.957 974.93 305.727 974.93 303.832C974.93 301.938 976.746 300.629 979.403 300.648ZM979.403 302.465C978.133 302.465 977.274 302.953 977.293 303.832C977.274 304.691 978.133 305.16 979.403 305.16C980.594 305.16 981.454 304.691 981.473 303.832C981.454 302.953 980.594 302.465 979.403 302.465ZM1010.16 300.043V313.031H1007.67V308.812H1003.61C1002.75 309.721 1001.51 310.277 1000.14 310.277C997.44 310.277 995.389 308.324 995.409 305.688C995.389 303.012 997.44 301.078 1000.14 301.059C1001.51 301.068 1002.74 301.615 1003.61 302.523H1007.67V300.043H1010.16ZM1010.58 315.492V317.484H998.358V311.723H1000.86V315.492H1010.58ZM1000.14 303.285C998.749 303.285 997.753 304.184 997.772 305.688C997.753 307.172 998.749 308.07 1000.14 308.07C1001.44 308.07 1002.46 307.172 1002.46 305.688C1002.46 304.184 1001.44 303.285 1000.14 303.285ZM1004.69 304.516C1004.77 304.887 1004.82 305.277 1004.82 305.688C1004.82 306.078 1004.77 306.459 1004.69 306.82H1007.67V304.516H1004.69ZM1026.58 301.059V302.66C1026.58 304.32 1026.58 306.137 1026.13 308.617H1028.47V310.629H1021.54V317.816H1019.04V310.629H1012.26V308.617H1023.61C1024.06 306.322 1024.1 304.584 1024.1 303.051H1014.12V301.059H1026.58ZM1038.93 301.039V303.031H1032.82V304.418H1038.41V306.332H1032.82V307.797C1035.95 307.787 1037.93 307.738 1040.18 307.367L1040.44 309.301C1037.9 309.73 1035.65 309.77 1031.84 309.77H1030.32V301.039H1038.93ZM1044.23 300.043V310.59H1041.73V300.043H1044.23ZM1044.23 311.312V317.602H1032.31V311.312H1044.23ZM1034.77 313.246V315.609H1041.79V313.246H1034.77Z" fill="#FF8522"/>
<rect x="884.5" y="91.5" width="199" height="55" rx="3.5" fill="#E6E6E6"/>
<rect x="884.5" y="91.5" width="199" height="55" rx="3.5" stroke="#C2C2C2"/>
<path d="M974.952 119.027V120.785H958.858V119.027H965.811V117.152H967.96V119.027H974.952ZM967.96 110.121V111.723H973.37V113.441H968.136C968.399 114.887 970.479 116.098 974.151 116.352L973.487 118.012C970.323 117.768 967.989 116.781 966.886 115.258C965.782 116.781 963.429 117.768 960.284 118.012L959.62 116.352C963.272 116.098 965.352 114.887 965.636 113.441H960.44V111.723H965.811V110.121H967.96ZM966.886 121.762C970.733 121.762 972.979 122.816 972.999 124.75C972.979 126.664 970.733 127.719 966.886 127.719C963.018 127.719 960.733 126.664 960.733 124.75C960.733 122.816 963.018 121.762 966.886 121.762ZM966.886 123.383C964.288 123.383 962.921 123.832 962.94 124.75C962.921 125.648 964.288 126.098 966.886 126.098C969.425 126.098 970.811 125.648 970.831 124.75C970.811 123.832 969.425 123.383 966.886 123.383ZM992.057 120.082V121.84H985.025V127.719H982.877V121.84H975.924V120.082H992.057ZM990.084 110.98V118.012H977.896V110.98H990.084ZM980.025 112.719V116.312H987.916V112.719H980.025ZM1002.54 111.117V112.875H996.212V114.516H1002.03V116.215H996.212V117.953C999.513 117.943 1001.52 117.885 1003.85 117.504L1004.06 119.203C1001.52 119.652 999.318 119.691 995.509 119.672H994.005V111.117H1002.54ZM1007.74 110.102V120.59H1005.55V110.102H1007.74ZM1007.74 121.371V127.523H996.017V121.371H1007.74ZM998.165 123.051V125.766H1005.61V123.051H998.165Z" fill="#555555"/>
<rect x="772.5" y="432.5" width="199" height="55" rx="3.5" fill="white"/>
<rect x="772.5" y="432.5" width="199" height="55" rx="3.5" stroke="#AAAAAA"/>
<path d="M836.433 456.102C836.433 458.992 838.132 462.039 840.984 463.23L839.793 464.949C837.703 464.051 836.179 462.195 835.379 459.949C834.558 462.371 833.015 464.402 830.945 465.379L829.695 463.68C832.488 462.391 834.226 459.109 834.226 456.102V454.617H830.339V452.82H840.3V454.617H836.433V456.102ZM844.461 451.082V468.738H842.273V451.082H844.461ZM861.018 451.883V453.23C861.018 454.549 861.018 456.062 860.647 458.035H862.991V459.793H855.979V462.547H861.057V468.738H858.889V464.285H848.499V462.547H853.811V459.793H846.858V458.035H858.46C858.811 456.229 858.85 454.852 858.85 453.621H848.85V451.883H861.018ZM873.807 452.391V453.445C873.787 454.656 873.787 456.395 873.377 458.641L871.229 458.445C871.57 456.619 871.639 455.271 871.678 454.188H864.803V452.391H873.807ZM869.354 456.414V459.93C871.18 459.861 873.055 459.725 874.764 459.48L874.881 461.043C871.209 461.707 867.049 461.766 863.943 461.785L863.748 460.047C864.793 460.037 865.965 460.027 867.205 460.008V456.414H869.354ZM878.025 451.082V456.59H880.311V458.406H878.025V464.305H875.799V451.082H878.025ZM878.592 466.629V468.387H866.385V463.133H868.572V466.629H878.592ZM895.736 451.082V468.758H893.587V451.082H895.736ZM890.306 452.625V459.246H884.232V462.801C887.015 462.781 889.417 462.645 892.161 462.176L892.357 463.953C889.349 464.48 886.712 464.578 883.548 464.578H882.005V457.527H888.099V454.383H881.986V452.625H890.306ZM907.625 452.117V453.875H901.297V455.516H907.118V457.215H901.297V458.953C904.598 458.943 906.61 458.885 908.934 458.504L909.149 460.203C906.61 460.652 904.403 460.691 900.594 460.672H899.09V452.117H907.625ZM912.821 451.102V461.59H910.633V451.102H912.821ZM912.821 462.371V468.523H901.102V462.371H912.821ZM903.25 464.051V466.766H910.692V464.051H903.25Z" fill="black"/>
<rect x="996.5" y="432.5" width="199" height="55" rx="3.5" fill="white"/>
<rect x="996.5" y="432.5" width="199" height="55" rx="3.5" stroke="#AAAAAA"/>
<path d="M1068.6 461.121V464.832H1072.12V461.121H1074.29V464.832H1078.45V466.59H1062.32V464.832H1066.46V461.121H1068.6ZM1071.44 453.445C1071.44 456.004 1074.11 458.523 1077.82 459.09L1076.94 460.887C1073.91 460.35 1071.46 458.699 1070.28 456.453C1069.1 458.68 1066.64 460.359 1063.64 460.887L1062.76 459.09C1066.46 458.504 1069.11 455.965 1069.13 453.445V452.137H1071.44V453.445ZM1089.75 452.488V454.246H1088.17V458.797C1088.96 458.738 1089.74 458.66 1090.49 458.562L1090.63 460.184C1087.04 460.789 1082.9 460.867 1079.93 460.867L1079.69 459.09L1081.71 459.07V454.246H1080.16V452.488H1089.75ZM1094.11 451.102V461.805H1091.92V451.102H1094.11ZM1088.17 462.156C1091.92 462.156 1094.21 463.328 1094.21 465.418C1094.21 467.508 1091.92 468.719 1088.17 468.719C1084.4 468.719 1082.14 467.508 1082.14 465.418C1082.14 463.328 1084.4 462.156 1088.17 462.156ZM1088.17 463.816C1085.67 463.816 1084.28 464.383 1084.28 465.418C1084.28 466.473 1085.67 467.039 1088.17 467.039C1090.65 467.039 1092.04 466.473 1092.04 465.418C1092.04 464.383 1090.65 463.816 1088.17 463.816ZM1083.8 459.031C1084.55 459.021 1085.32 458.992 1086.1 458.934V454.246H1083.8V459.031ZM1112.58 458.465V460.223H1096.49V458.465H1103.42V457.137H1098.52V451.629H1110.51V457.137H1105.57V458.465H1112.58ZM1100.65 453.328V455.438H1108.34V453.328H1100.65ZM1110.57 461.297V465.633H1100.53V466.922H1111.06V468.582H1098.4V464.07H1108.44V462.938H1098.38V461.297H1110.57ZM1123.08 452.117V453.875H1116.75V455.516H1122.58V457.215H1116.75V458.953C1120.06 458.943 1122.07 458.885 1124.39 458.504L1124.61 460.203C1122.07 460.652 1119.86 460.691 1116.05 460.672H1114.55V452.117H1123.08ZM1128.28 451.102V461.59H1126.09V451.102H1128.28ZM1128.28 462.371V468.523H1116.56V462.371H1128.28ZM1118.71 464.051V466.766H1126.15V464.051H1118.71Z" fill="black"/>
<circle cx="625" cy="214" r="4.5" fill="white" stroke="#FF8522" stroke-width="3"/>
<circle cx="324" cy="294" r="4.5" fill="white" stroke="#FF8522" stroke-width="3"/>
<circle cx="984" cy="386" r="4.5" fill="white" stroke="#FF8522" stroke-width="3"/>
</svg>
