<svg width="328" height="746" viewBox="0 0 328 746" fill="none" xmlns="http://www.w3.org/2000/svg">
<line x1="86.3164" y1="196" x2="86.3164" y2="398" stroke="#DDDDDD"/>
<line x1="115.264" y1="254.5" x2="85.8169" y2="254.5" stroke="#DDDDDD"/>
<line x1="115.264" y1="326.5" x2="85.8169" y2="326.5" stroke="#DDDDDD"/>
<line x1="115.264" y1="398.5" x2="85.8169" y2="398.5" stroke="#DDDDDD"/>
<line x1="136.59" y1="585" x2="136.59" y2="716" stroke="#DDDDDD"/>
<line x1="165.537" y1="643.5" x2="136.09" y2="643.5" stroke="#DDDDDD"/>
<line x1="165.537" y1="715.5" x2="136.09" y2="715.5" stroke="#DDDDDD"/>
<line x1="86.3164" y1="507" x2="86.3164" y2="570" stroke="#DDDDDD"/>
<line x1="115.264" y1="570.5" x2="85.8169" y2="570.5" stroke="#DDDDDD"/>
<line x1="30.3184" y1="52" x2="30.3183" y2="494" stroke="#DDDDDD"/>
<line x1="103.57" y1="178.5" x2="29.4458" y2="178.5" stroke="#DDDDDD"/>
<line x1="103.57" y1="494.5" x2="29.4458" y2="494.5" stroke="#DDDDDD"/>
<line x1="96.4629" y1="102.5" x2="30.4616" y2="102.5" stroke="#DDDDDD"/>
<rect width="212.987" height="54" rx="4" fill="#FF8522"/>
<path d="M89.9595 18.6211V34.6172H87.8325V26.584H86.2856V33.8438H84.229V18.8848H86.2856V24.791H87.8325V18.6211H89.9595ZM82.5415 20.4668V22.2773H78.8325V29.0977C80.3794 29.0889 81.7505 29.0098 83.2973 28.7285L83.4555 30.5566C81.5044 30.9258 79.7993 30.9785 77.6899 30.9961H76.5825V20.4668H82.5415ZM106.145 31.0488V32.8418H91.5021V31.0488H95.1408V28.0078H92.715V26.1973H94.8595V21.6973H92.6447V19.9043H104.914V21.6973H102.664V26.1973H104.844V28.0078H102.436V31.0488H106.145ZM97.1095 26.1973H100.449V21.6973H97.1095V26.1973ZM97.3908 31.0488H100.186V28.0078H97.3908V31.0488ZM120.273 18.6211V34.6523H118.006V18.6211H120.273ZM111.59 19.7461C113.998 19.7461 115.791 21.9609 115.791 25.4414C115.791 28.957 113.998 31.1543 111.59 31.1543C109.129 31.1543 107.336 28.957 107.353 25.4414C107.336 21.9609 109.129 19.7461 111.59 19.7461ZM111.59 21.7676C110.342 21.7676 109.515 23.0684 109.515 25.4414C109.515 27.832 110.342 29.1152 111.59 29.1152C112.803 29.1152 113.629 27.832 113.629 25.4414C113.629 23.0684 112.803 21.7676 111.59 21.7676ZM128.144 22.2422C128.126 25.1074 129.357 28.0078 131.923 29.2383L130.57 31.0312C128.856 30.1875 127.705 28.6055 127.037 26.6719C126.342 28.7461 125.103 30.4424 123.292 31.3301L121.904 29.5195C124.611 28.2715 125.894 25.2129 125.894 22.2422V19.8516H128.144V22.2422ZM134.876 18.6211V24.791H137.232V26.6895H134.876V34.6172H132.626V18.6211H134.876Z" fill="white"/>
<rect x="65.4863" y="466.5" width="211.987" height="55" rx="3.5" fill="white"/>
<rect x="65.4863" y="466.5" width="211.987" height="55" rx="3.5" stroke="#FF8522"/>
<path d="M146.906 485.639V494.85H144.673V493.285H141.07V491.492H144.673V489.963H141.228C140.235 492.494 137.967 494.234 134.443 495.201L133.564 493.426C137.247 492.459 139.048 490.701 139.365 488.504H134.425V486.711H141.808C141.808 487.229 141.773 487.73 141.703 488.205H144.673V485.639H146.906ZM141.58 495.043C144.832 495.043 147.011 496.291 147.029 498.277C147.011 500.281 144.832 501.547 141.58 501.547C138.293 501.547 136.095 500.281 136.113 498.277C136.095 496.291 138.293 495.043 141.58 495.043ZM141.58 496.801C139.558 496.783 138.345 497.293 138.345 498.277C138.345 499.262 139.558 499.771 141.58 499.771C143.566 499.771 144.779 499.262 144.779 498.277C144.779 497.293 143.566 496.783 141.58 496.801ZM153.265 486.482C154.539 486.482 155.656 486.948 156.429 487.73H160.05V485.621H162.283V494.99H160.05V493.074H156.411C155.638 493.848 154.531 494.313 153.265 494.305C150.839 494.322 148.993 492.652 149.011 490.402C148.993 488.117 150.839 486.482 153.265 486.482ZM153.265 488.398C152.017 488.398 151.12 489.137 151.138 490.402C151.12 491.633 152.017 492.424 153.265 492.406C154.478 492.424 155.357 491.633 155.357 490.402C155.357 489.137 154.478 488.398 153.265 488.398ZM156.816 495.324C160.208 495.324 162.318 496.484 162.335 498.471C162.318 500.457 160.208 501.617 156.816 501.617C153.441 501.617 151.314 500.457 151.314 498.471C151.314 496.484 153.441 495.324 156.816 495.324ZM156.816 497.029C154.689 497.029 153.511 497.504 153.511 498.471C153.511 499.402 154.689 499.877 156.816 499.877C158.978 499.877 160.138 499.402 160.138 498.471C160.138 497.504 158.978 497.029 156.816 497.029ZM157.396 489.506C157.449 489.787 157.484 490.095 157.484 490.402C157.484 490.71 157.449 491 157.396 491.281H160.05V489.506H157.396ZM170.382 489.98C170.382 492.564 171.7 495.324 174.39 496.449L173.177 498.207C171.287 497.407 169.986 495.816 169.274 493.865C168.545 495.983 167.218 497.741 165.337 498.611L164.054 496.836C166.708 495.658 168.079 492.688 168.079 489.98V488.996H164.687V487.168H173.722V488.996H170.382V489.98ZM177.571 485.621V501.617H175.304V485.621H177.571ZM193.106 485.639V497.715H190.856V496.449H187.798V494.92H190.856V485.639H193.106ZM193.458 499.543V501.336H181.54V496.555H183.772V494.428C182.34 494.489 180.977 494.498 179.764 494.498L179.501 492.723C182.436 492.705 186.391 492.67 189.766 492.248L189.889 493.848C188.624 494.059 187.314 494.208 186.022 494.305V497.346H183.772V499.543H193.458ZM184.704 486.184C187.024 486.166 188.694 487.344 188.694 489.049C188.694 490.754 187.024 491.861 184.704 491.861C182.331 491.861 180.678 490.754 180.678 489.049C180.678 487.344 182.313 486.166 184.704 486.184ZM184.704 487.818C183.561 487.818 182.788 488.258 182.805 489.049C182.788 489.822 183.561 490.244 184.704 490.244C185.776 490.244 186.549 489.822 186.567 489.049C186.549 488.258 185.776 487.818 184.704 487.818ZM209.555 494.85V496.607H203.297V501.617H201.082V496.607H194.912V494.85H209.555ZM198.85 486.236V488.082H205.565V486.236H207.815V493.303H196.635V486.236H198.85ZM198.85 491.51H205.565V489.84H198.85V491.51Z" fill="#FF8522"/>
<rect x="65.4863" y="150.5" width="211.987" height="55" rx="3.5" fill="white"/>
<rect x="65.4863" y="150.5" width="211.987" height="55" rx="3.5" stroke="#FF8522"/>
<path d="M113.307 169.621V175.879H115.663V177.725H113.307V185.617H111.092V169.621H113.307ZM110.002 172.012V173.805H100.598V172.012H104.219V169.867H106.469V172.012H110.002ZM105.344 174.701C107.682 174.701 109.422 176.283 109.422 178.516C109.422 180.748 107.682 182.33 105.344 182.33C102.989 182.33 101.248 180.748 101.248 178.516C101.248 176.283 102.989 174.701 105.344 174.701ZM105.344 176.512C104.219 176.529 103.393 177.285 103.393 178.516C103.393 179.764 104.219 180.502 105.344 180.484C106.469 180.502 107.278 179.764 107.278 178.516C107.278 177.285 106.469 176.529 105.344 176.512ZM129.545 169.639V181.328H127.313V177.531H123.656C122.883 178.349 121.767 178.85 120.527 178.85C118.102 178.85 116.256 177.092 116.274 174.719C116.256 172.311 118.102 170.57 120.527 170.553C121.767 170.562 122.874 171.054 123.656 171.871H127.313V169.639H129.545ZM129.932 183.543V185.336H118.928V180.15H121.178V183.543H129.932ZM120.527 172.557C119.279 172.557 118.383 173.365 118.401 174.719C118.383 176.055 119.279 176.863 120.527 176.863C121.705 176.863 122.619 176.055 122.619 174.719C122.619 173.365 121.705 172.557 120.527 172.557ZM124.623 173.664C124.702 173.998 124.746 174.35 124.746 174.719C124.746 175.07 124.702 175.413 124.623 175.738H127.313V173.664H124.623ZM144.711 171.01V172.574C144.693 174.525 144.693 176.723 144.113 179.939L141.916 179.746C142.443 176.819 142.461 174.64 142.461 172.785H132.881V171.01H144.711ZM146.029 181.838V183.666H131.439V181.838H134.551V176.811H136.783V181.838H138.541V176.811H140.756V181.838H146.029ZM161.406 177.092V178.867H157.89V180.361H159.63V185.617H157.398V182.119H148.433V180.361H150.261V178.867H146.816V177.092H161.406ZM154.111 169.938C157.626 169.92 159.912 171.133 159.929 173.084C159.912 175.035 157.626 176.248 154.111 176.248C150.578 176.248 148.275 175.035 148.275 173.084C148.275 171.133 150.578 169.92 154.111 169.938ZM154.111 171.678C151.878 171.678 150.595 172.17 150.613 173.084C150.595 174.033 151.878 174.508 154.111 174.508C156.326 174.508 157.609 174.033 157.609 173.084C157.609 172.17 156.326 171.678 154.111 171.678ZM152.529 180.361H155.675V178.867H152.529V180.361ZM175.161 171.221V172.504C175.143 174.016 175.143 175.984 174.722 178.639L172.507 178.463C172.867 176.143 172.902 174.429 172.929 173.014H166.864V171.221H175.161ZM171.171 175.809V180.449C172.744 180.388 174.344 180.273 175.811 180.08L175.952 181.75C172.665 182.312 169.026 182.365 166.231 182.348L166.02 180.555C166.917 180.546 167.919 180.546 168.956 180.52V175.809H171.171ZM178.835 169.621V176.055H181.014V177.918H178.835V185.617H176.567V169.621H178.835ZM191.03 171.045V172.82H181.538V171.045H185.176V169.533H187.409V171.045H191.03ZM186.284 173.33C188.604 173.33 190.221 174.525 190.221 176.283C190.221 178.041 188.604 179.236 186.284 179.236C183.963 179.236 182.311 178.041 182.311 176.283C182.311 174.525 183.963 173.33 186.284 173.33ZM186.284 175.018C185.211 175.018 184.491 175.457 184.508 176.283C184.491 177.092 185.211 177.514 186.284 177.514C187.356 177.514 188.094 177.092 188.094 176.283C188.094 175.457 187.356 175.018 186.284 175.018ZM194.229 169.621V173.77H196.391V175.598H194.229V179.658H191.979V169.621H194.229ZM194.229 180.326V185.617H191.979V182.119H183.454V180.326H194.229ZM210.397 169.639V181.328H208.164V177.531H204.508C203.735 178.349 202.618 178.85 201.379 178.85C198.953 178.85 197.108 177.092 197.125 174.719C197.108 172.311 198.953 170.57 201.379 170.553C202.618 170.562 203.726 171.054 204.508 171.871H208.164V169.639H210.397ZM210.783 183.543V185.336H199.779V180.15H202.029V183.543H210.783ZM201.379 172.557C200.131 172.557 199.235 173.365 199.252 174.719C199.235 176.055 200.131 176.863 201.379 176.863C202.557 176.863 203.471 176.055 203.471 174.719C203.471 173.365 202.557 172.557 201.379 172.557ZM205.475 173.664C205.554 173.998 205.598 174.35 205.598 174.719C205.598 175.07 205.554 175.413 205.475 175.738H208.164V173.664H205.475ZM225.176 170.553V171.994C225.176 173.488 225.176 175.123 224.771 177.355H226.881V179.166H220.641V185.635H218.391V179.166H212.291V177.355H222.504C222.908 175.29 222.943 173.726 222.943 172.346H213.961V170.553H225.176ZM242.31 181.908V183.701H227.668V181.908H233.785V178.287H236.017V181.908H242.31ZM236.087 171.678C236.087 173.963 238.144 176.371 241.8 176.934L240.851 178.797C238.039 178.287 235.947 176.784 234.892 174.789C233.837 176.775 231.763 178.296 228.968 178.797L228.019 176.934C231.64 176.371 233.679 173.945 233.697 171.678V170.535H236.087V171.678Z" fill="#FF8522"/>
<rect x="115.762" y="226.5" width="161.465" height="55" rx="3.5" fill="white"/>
<rect x="115.762" y="226.5" width="161.465" height="55" rx="3.5" stroke="#AAAAAA"/>
<path d="M154.093 247.133V248.75C154.093 250.719 154.093 252.863 153.513 255.975L151.597 255.781C152.142 252.846 152.142 250.666 152.142 248.75V248.697H142.526V247.133H154.093ZM155.552 257.908V259.508H141.068V257.908H144.319V252.846H146.271V257.908H148.292V252.846H150.208V257.908H155.552ZM170.225 245.674V261.564H168.362V253.514H166.727V260.791H164.882V245.955H166.727V251.896H168.362V245.674H170.225ZM161.384 249.734C161.384 252.564 162.333 255.166 164.688 256.379L163.546 257.873C162.034 257.064 161.041 255.667 160.487 253.936C159.942 255.913 158.949 257.504 157.376 258.436L156.18 256.941C158.536 255.605 159.485 252.828 159.485 249.734V248.979H156.655V247.414H163.985V248.979H161.384V249.734ZM185.461 245.674V261.564H183.581V253.408H181.875V260.826H180.047V246.096H181.875V251.826H183.581V245.674H185.461ZM178.694 247.678C178.694 251.967 177.34 255.658 172.823 258.242L171.698 256.889C175.082 254.929 176.514 252.415 176.795 249.242H172.436V247.678H178.694ZM189.676 246.377V248.398H193.385V246.377H195.319V253.303H187.742V246.377H189.676ZM189.676 251.756H193.385V249.875H189.676V251.756ZM199.731 245.674V248.891H201.945V250.473H199.731V253.812H197.779V245.674H199.731ZM199.731 254.445V258.611H191.293V259.877H200.223V261.424H189.36V257.188H197.779V255.975H189.342V254.445H199.731ZM219.972 245.691V257.346H218.021V253.408H214.242C213.477 254.261 212.352 254.779 211.078 254.779C208.687 254.779 206.876 253.057 206.876 250.719C206.876 248.346 208.687 246.641 211.078 246.641C212.343 246.641 213.459 247.15 214.224 247.994H218.021V245.691H219.972ZM220.376 259.666V261.248H209.548V256.15H211.5V259.666H220.376ZM211.078 248.381C209.707 248.381 208.74 249.295 208.74 250.719C208.74 252.125 209.707 253.039 211.078 253.039C212.378 253.039 213.363 252.125 213.38 250.719C213.363 249.295 212.378 248.381 211.078 248.381ZM215.085 249.576C215.182 249.937 215.244 250.314 215.244 250.719C215.244 251.105 215.191 251.475 215.103 251.826H218.021V249.576H215.085ZM234.751 246.641V248.064C234.751 249.55 234.751 251.176 234.329 253.426H236.527V255.008H230.216V261.582H228.247V255.008H222.042V253.426H232.343C232.782 251.264 232.8 249.646 232.8 248.223H223.747V246.641H234.751ZM245.979 246.605V248.188H240.284V249.664H245.522V251.193H240.284V252.758C243.255 252.749 245.065 252.696 247.157 252.354L247.35 253.883C245.065 254.287 243.079 254.322 239.651 254.305H238.298V246.605H245.979ZM250.655 245.691V255.131H248.686V245.691H250.655ZM250.655 255.834V261.371H240.108V255.834H250.655ZM242.042 257.346V259.789H248.739V257.346H242.042Z" fill="black"/>
<rect x="115.762" y="298.5" width="161.465" height="55" rx="3.5" fill="white"/>
<rect x="115.762" y="298.5" width="161.465" height="55" rx="3.5" stroke="#AAAAAA"/>
<path d="M179.397 317.674V333.582H177.428V317.674H179.397ZM174.827 319.115V320.715H169.131V328.098C172.058 328.089 173.895 328.001 176.004 327.623L176.198 329.24C173.93 329.662 171.874 329.75 168.516 329.75H167.163V319.115H174.827ZM187.25 322.191C187.25 324.652 188.709 327.447 191.223 328.607L190.133 330.154C188.34 329.311 187.013 327.605 186.301 325.619C185.58 327.799 184.192 329.662 182.363 330.541L181.221 329.012C183.752 327.816 185.281 324.828 185.299 322.191V320.855H181.836V319.238H190.572V320.855H187.25V322.191ZM194 317.674V323.861H196.444V325.496H194V333.564H192.049V317.674H194ZM210.168 317.691V329.17H208.199V317.691H210.168ZM210.607 331.666V333.248H199.656V328.01H201.625V331.666H210.607ZM201.502 318.729C203.91 318.729 205.773 320.398 205.773 322.701C205.773 325.057 203.91 326.691 201.502 326.691C199.076 326.691 197.213 325.057 197.213 322.701C197.213 320.398 199.076 318.729 201.502 318.729ZM201.502 320.434C200.148 320.434 199.111 321.33 199.129 322.701C199.111 324.107 200.148 324.986 201.502 324.986C202.82 324.986 203.857 324.107 203.857 322.701C203.857 321.33 202.82 320.434 201.502 320.434ZM220.869 318.605V320.188H215.173V321.664H220.412V323.193H215.173V324.758C218.144 324.749 219.955 324.696 222.046 324.354L222.24 325.883C219.955 326.287 217.968 326.322 214.541 326.305H213.187V318.605H220.869ZM225.544 317.691V327.131H223.576V317.691H225.544ZM225.544 327.834V333.371H214.998V327.834H225.544ZM216.931 329.346V331.789H223.628V329.346H216.931Z" fill="black"/>
<rect x="115.762" y="370.5" width="161.465" height="55" rx="3.5" fill="white"/>
<rect x="115.762" y="370.5" width="161.465" height="55" rx="3.5" stroke="#AAAAAA"/>
<path d="M155.552 396.125V397.672H149.259V398.867H153.741V402.77H144.706V403.93H154.181V405.424H142.79V401.363H151.825V400.344H142.773V398.867H147.308V397.672H141.068V396.125H155.552ZM153.689 390.166V395.123H142.896V390.166H153.689ZM144.812 391.695V393.594H151.737V391.695H144.812ZM170.946 399.061V400.59H167.448V405.564H165.479V400.59H161.911V405.564H159.96V400.59H156.427V399.061H170.946ZM169.259 390.201V394.648H160.136V396.16H169.61V397.742H158.167V393.189H167.255V391.801H158.132V390.201H169.259ZM180.698 390.852V391.801C180.68 392.891 180.68 394.455 180.311 396.477L178.377 396.301C178.685 394.657 178.747 393.444 178.782 392.469H172.594V390.852H180.698ZM176.69 394.473V397.637C178.333 397.575 180.021 397.452 181.559 397.232L181.665 398.639C178.36 399.236 174.616 399.289 171.821 399.307L171.645 397.742C172.585 397.733 173.64 397.725 174.756 397.707V394.473H176.69ZM184.495 389.674V394.631H186.551V396.266H184.495V401.574H182.491V389.674H184.495ZM185.004 403.666V405.248H174.018V400.52H175.987V403.666H185.004ZM200.434 389.674V405.582H198.5V389.674H200.434ZM195.547 391.062V397.021H190.08V400.221C192.585 400.203 194.747 400.08 197.217 399.658L197.393 401.258C194.686 401.732 192.313 401.82 189.465 401.82H188.076V395.475H193.561V392.645H188.059V391.062H195.547ZM219.972 389.691V401.346H218.021V397.408H214.242C213.477 398.261 212.352 398.779 211.078 398.779C208.687 398.779 206.876 397.057 206.876 394.719C206.876 392.346 208.687 390.641 211.078 390.641C212.343 390.641 213.459 391.15 214.224 391.994H218.021V389.691H219.972ZM220.376 403.666V405.248H209.548V400.15H211.5V403.666H220.376ZM211.078 392.381C209.707 392.381 208.74 393.295 208.74 394.719C208.74 396.125 209.707 397.039 211.078 397.039C212.378 397.039 213.363 396.125 213.38 394.719C213.363 393.295 212.378 392.381 211.078 392.381ZM215.085 393.576C215.182 393.937 215.244 394.314 215.244 394.719C215.244 395.105 215.191 395.475 215.103 395.826H218.021V393.576H215.085ZM234.751 390.641V392.064C234.751 393.55 234.751 395.176 234.329 397.426H236.527V399.008H230.216V405.582H228.247V399.008H222.042V397.426H232.343C232.782 395.264 232.8 393.646 232.8 392.223H223.747V390.641H234.751ZM245.979 390.605V392.188H240.284V393.664H245.522V395.193H240.284V396.758C243.255 396.749 245.065 396.696 247.157 396.354L247.35 397.883C245.065 398.287 243.079 398.322 239.651 398.305H238.298V390.605H245.979ZM250.655 389.691V399.131H248.686V389.691H250.655ZM250.655 399.834V405.371H240.108V399.834H250.655ZM242.042 401.346V403.789H248.739V401.346H242.042Z" fill="black"/>
<rect x="115.762" y="542.5" width="161.465" height="55" rx="3.5" fill="#FFF6F1"/>
<rect x="115.762" y="542.5" width="161.465" height="55" rx="3.5" stroke="#FF8522"/>
<path d="M154.26 563.01V564.521C154.26 566.525 154.26 568.775 153.609 572.168L151.359 571.939C151.966 568.916 151.992 566.666 152.01 564.785H142.588V563.01H154.26ZM155.666 573.838V575.666H141.076V573.838H146.297V568.336H148.529V573.838H155.666ZM170.199 561.639V571.008H168.072V567.141H166.631V570.938H164.521V561.92H166.631V565.312H168.072V561.639H170.199ZM170.199 571.623V577.617H167.967V573.434H159.037V571.623H170.199ZM163.431 562.729C163.431 566.754 161.498 569.461 157.332 571.113L156.277 569.443C159.292 568.336 160.804 566.684 161.146 564.521H157.051V562.729H163.431ZM178.035 565.98C178.035 568.564 179.353 571.324 182.042 572.449L180.83 574.207C178.94 573.407 177.639 571.816 176.927 569.865C176.198 571.983 174.871 573.741 172.99 574.611L171.707 572.836C174.361 571.658 175.732 568.688 175.732 565.98V564.996H172.339V563.168H181.374V564.996H178.035V565.98ZM185.224 561.621V577.617H182.957V561.621H185.224ZM200.759 561.639V573.715H198.509V572.449H195.45V570.92H198.509V561.639H200.759ZM201.111 575.543V577.336H189.193V572.555H191.425V570.428C189.992 570.489 188.63 570.498 187.417 570.498L187.153 568.723C190.089 568.705 194.044 568.67 197.419 568.248L197.542 569.848C196.277 570.059 194.967 570.208 193.675 570.305V573.346H191.425V575.543H201.111ZM192.357 562.184C194.677 562.166 196.347 563.344 196.347 565.049C196.347 566.754 194.677 567.861 192.357 567.861C189.984 567.861 188.331 566.754 188.331 565.049C188.331 563.344 189.966 562.166 192.357 562.184ZM192.357 563.818C191.214 563.818 190.441 564.258 190.458 565.049C190.441 565.822 191.214 566.244 192.357 566.244C193.429 566.244 194.202 565.822 194.22 565.049C194.202 564.258 193.429 563.818 192.357 563.818ZM220.034 561.639V573.328H217.801V569.531H214.145C213.372 570.349 212.255 570.85 211.016 570.85C208.59 570.85 206.745 569.092 206.762 566.719C206.745 564.311 208.59 562.57 211.016 562.553C212.255 562.562 213.363 563.054 214.145 563.871H217.801V561.639H220.034ZM220.42 575.543V577.336H209.417V572.15H211.667V575.543H220.42ZM211.016 564.557C209.768 564.557 208.872 565.365 208.889 566.719C208.872 568.055 209.768 568.863 211.016 568.863C212.194 568.863 213.108 568.055 213.108 566.719C213.108 565.365 212.194 564.557 211.016 564.557ZM215.112 565.664C215.191 565.998 215.235 566.35 215.235 566.719C215.235 567.07 215.191 567.413 215.112 567.738H217.801V565.664H215.112ZM234.813 562.553V563.994C234.813 565.488 234.813 567.123 234.408 569.355H236.518V571.166H230.278V577.635H228.028V571.166H221.928V569.355H232.141C232.545 567.29 232.58 565.726 232.58 564.346H223.598V562.553H234.813ZM245.935 562.535V564.328H240.433V565.576H245.461V567.299H240.433V568.617C243.246 568.608 245.03 568.564 247.06 568.23L247.289 569.971C245.004 570.357 242.982 570.393 239.555 570.393H238.183V562.535H245.935ZM250.699 561.639V571.131H248.449V561.639H250.699ZM250.699 571.781V577.441H239.976V571.781H250.699ZM242.191 573.521V575.648H248.502V573.521H242.191Z" fill="#FF8522"/>
<rect x="65.4863" y="74.5" width="211.987" height="55" rx="3.5" fill="#E6E6E6"/>
<rect x="65.4863" y="74.5" width="211.987" height="55" rx="3.5" stroke="#C2C2C2"/>
<path d="M163.337 101.725V103.307H148.853V101.725H155.111V100.037H157.044V101.725H163.337ZM157.044 93.709V95.1504H161.913V96.6973H157.202C157.44 97.998 159.312 99.0879 162.617 99.3164L162.019 100.811C159.171 100.591 157.071 99.7031 156.077 98.332C155.084 99.7031 152.966 100.591 150.136 100.811L149.538 99.3164C152.826 99.0879 154.698 97.998 154.952 96.6973H150.277V95.1504H155.111V93.709H157.044ZM156.077 104.186C159.54 104.186 161.562 105.135 161.579 106.875C161.562 108.598 159.54 109.547 156.077 109.547C152.597 109.547 150.54 108.598 150.54 106.875C150.54 105.135 152.597 104.186 156.077 104.186ZM156.077 105.645C153.74 105.645 152.509 106.049 152.527 106.875C152.509 107.684 153.74 108.088 156.077 108.088C158.363 108.088 159.611 107.684 159.628 106.875C159.611 106.049 158.363 105.645 156.077 105.645ZM178.731 102.674V104.256H172.403V109.547H170.47V104.256H164.212V102.674H178.731ZM176.956 94.4824V100.811H165.987V94.4824H176.956ZM167.903 96.0469V99.2812H175.005V96.0469H167.903ZM188.167 94.6055V96.1875H182.471V97.6641H187.71V99.1934H182.471V100.758C185.442 100.749 187.253 100.696 189.344 100.354L189.538 101.883C187.253 102.287 185.266 102.322 181.839 102.305H180.485V94.6055H188.167ZM192.842 93.6914V103.131H190.874V93.6914H192.842ZM192.842 103.834V109.371H182.296V103.834H192.842ZM184.229 105.346V107.789H190.926V105.346H184.229Z" fill="#555555"/>
<rect x="166.035" y="618.5" width="161.465" height="55" rx="3.5" fill="white"/>
<rect x="166.035" y="618.5" width="161.465" height="55" rx="3.5" stroke="#AAAAAA"/>
<path d="M214.757 642.191C214.757 644.793 216.287 647.535 218.853 648.607L217.781 650.154C215.9 649.346 214.529 647.676 213.808 645.654C213.07 647.834 211.681 649.662 209.818 650.541L208.693 649.012C211.207 647.852 212.771 644.898 212.771 642.191V640.855H209.273V639.238H218.238V640.855H214.757V642.191ZM221.982 637.674V653.564H220.013V637.674H221.982ZM236.884 638.395V639.607C236.884 640.794 236.884 642.156 236.55 643.932H238.659V645.514H232.349V647.992H236.919V653.564H234.968V649.557H225.617V647.992H230.398V645.514H224.14V643.932H234.581C234.898 642.306 234.933 641.066 234.933 639.959H225.933V638.395H236.884ZM248.394 638.852V639.801C248.376 640.891 248.376 642.455 248.007 644.477L246.073 644.301C246.381 642.657 246.442 641.444 246.478 640.469H240.29V638.852H248.394ZM244.386 642.473V645.637C246.029 645.575 247.717 645.452 249.255 645.232L249.36 646.639C246.056 647.236 242.312 647.289 239.517 647.307L239.341 645.742C240.281 645.733 241.336 645.725 242.452 645.707V642.473H244.386ZM252.19 637.674V642.631H254.247V644.266H252.19V649.574H250.187V637.674H252.19ZM252.7 651.666V653.248H241.714V648.52H243.683V651.666H252.7ZM268.13 637.674V653.582H266.196V637.674H268.13ZM263.243 639.062V645.021H257.776V648.221C260.281 648.203 262.443 648.08 264.913 647.658L265.089 649.258C262.382 649.732 260.008 649.82 257.161 649.82H255.772V643.475H261.257V640.645H255.755V639.062H263.243ZM278.83 638.605V640.188H273.135V641.664H278.373V643.193H273.135V644.758C276.106 644.749 277.916 644.696 280.008 644.354L280.202 645.883C277.916 646.287 275.93 646.322 272.502 646.305H271.149V638.605H278.83ZM283.506 637.691V647.131H281.537V637.691H283.506ZM283.506 647.834V653.371H272.959V647.834H283.506ZM274.893 649.346V651.789H281.59V649.346H274.893Z" fill="black"/>
<rect x="166.035" y="690.5" width="161.465" height="55" rx="3.5" fill="white"/>
<rect x="166.035" y="690.5" width="161.465" height="55" rx="3.5" stroke="#AAAAAA"/>
<path d="M222.112 718.709V722.049H225.276V718.709H227.227V722.049H230.971V723.631H216.452V722.049H220.178V718.709H222.112ZM224.661 711.801C224.661 714.104 227.069 716.371 230.409 716.881L229.618 718.498C226.884 718.015 224.678 716.529 223.624 714.508C222.56 716.512 220.345 718.023 217.647 718.498L216.856 716.881C220.178 716.354 222.569 714.068 222.586 711.801V710.623H224.661V711.801ZM241.145 710.939V712.521H239.721V716.617C240.433 716.564 241.136 716.494 241.813 716.406L241.936 717.865C238.701 718.41 234.975 718.48 232.303 718.48L232.092 716.881L233.903 716.863V712.521H232.514V710.939H241.145ZM245.065 709.691V719.324H243.096V709.691H245.065ZM239.721 719.641C243.096 719.641 245.153 720.695 245.153 722.576C245.153 724.457 243.096 725.547 239.721 725.547C236.328 725.547 234.289 724.457 234.289 722.576C234.289 720.695 236.328 719.641 239.721 719.641ZM239.721 721.135C237.471 721.135 236.223 721.645 236.223 722.576C236.223 723.525 237.471 724.035 239.721 724.035C241.953 724.035 243.201 723.525 243.201 722.576C243.201 721.645 241.953 721.135 239.721 721.135ZM235.783 716.828C236.46 716.819 237.154 716.793 237.858 716.74V712.521H235.783V716.828ZM261.689 716.318V717.9H247.205V716.318H253.445V715.123H249.033V710.166H259.826V715.123H255.379V716.318H261.689ZM250.949 711.695V713.594H257.875V711.695H250.949ZM259.879 718.867V722.77H250.844V723.93H260.318V725.424H248.928V721.363H257.963V720.344H248.91V718.867H259.879ZM271.142 710.605V712.188H265.447V713.664H270.685V715.193H265.447V716.758C268.417 716.749 270.228 716.696 272.32 716.354L272.513 717.883C270.228 718.287 268.242 718.322 264.814 718.305H263.46V710.605H271.142ZM275.818 709.691V719.131H273.849V709.691H275.818ZM275.818 719.834V725.371H265.271V719.834H275.818ZM267.205 721.346V723.789H273.902V721.346H267.205Z" fill="black"/>
</svg>
