<svg width="170" height="30" viewBox="0 0 170 30" fill="none" xmlns="http://www.w3.org/2000/svg">
<g clip-path="url(#clip0_508_5)">
<path d="M14.2919 17.7376C14.0321 16.2973 12.0218 15.9935 12.0218 15.9935H1.43945V17.9458H12.0218C12.0218 17.9458 13.8797 18.047 14.2919 19.0766C14.7041 18.047 16.562 17.9458 16.562 17.9458H27.037V15.9935H16.562C16.562 15.9935 14.5516 16.303 14.2919 17.7376Z" fill="#88ABDA"/>
<path d="M14.2919 15.5435C14.0321 14.1032 12.0218 13.7994 12.0218 13.7994H1.43945V15.4816H12.0218C12.0218 15.4816 13.8797 15.5829 14.2919 16.6125C14.7041 15.5829 16.562 15.4816 16.562 15.4816H27.037V13.7994H16.562C16.562 13.7994 14.5516 14.1089 14.2919 15.5435Z" fill="#B6CCEA"/>
<path d="M14.2919 23.2849C14.0321 21.8446 12.0218 21.5408 12.0218 21.5408H1.43945V29.2935H27.0427V21.5408H16.5676C16.5676 21.5408 14.5573 21.8502 14.2975 23.2849H14.2919Z" fill="#0068B7"/>
<path d="M14.2919 20.2018C14.0321 18.7616 12.0218 18.4578 12.0218 18.4578H1.43945V21.0233H12.0218C12.0218 21.0233 13.8797 21.1245 14.2919 22.1541C14.7041 21.1245 16.562 21.0233 16.562 21.0233H27.037V18.4578H16.562C16.562 18.4578 14.5516 18.7672 14.2919 20.2018Z" fill="#5C95CF"/>
<path d="M14.2919 13.7318C14.0321 12.2915 12.0218 11.9877 12.0218 11.9877H1.43945V13.2873H12.0218C12.0218 13.2873 13.8797 13.3886 14.2919 14.4181C14.7041 13.3886 16.562 13.2873 16.562 13.2873H27.037V11.9877H16.562C16.562 11.9877 14.5516 12.2971 14.2919 13.7318Z" fill="#D7E3F4"/>
<path d="M16.5676 10.0862C16.5676 10.0862 14.5573 10.3956 14.2975 11.8303C14.0378 10.39 12.0275 10.0862 12.0275 10.0862H1.43945V11.4758H12.0218C12.0218 11.4758 13.8797 11.5771 14.2919 12.6067C14.7041 11.5771 16.562 11.4758 16.562 11.4758H27.037V10.0862H16.562H16.5676Z" fill="#EEF1F9"/>
<path d="M14.2919 22.1542C13.8797 21.1246 12.0218 21.0233 12.0218 21.0233H1.43945V21.5353H12.0218C12.0218 21.5353 14.0321 21.8447 14.2919 23.2794C14.5516 21.8391 16.562 21.5353 16.562 21.5353H27.037V21.0233H16.562C16.562 21.0233 14.7041 21.1246 14.2919 22.1542Z" fill="white"/>
<path d="M14.2919 19.071C13.8797 18.0415 12.0218 17.9402 12.0218 17.9402H1.43945V18.4522H12.0218C12.0218 18.4522 14.0321 18.7616 14.2919 20.1962C14.5516 18.756 16.562 18.4522 16.562 18.4522H27.037V17.9402H16.562C16.562 17.9402 14.7041 18.0415 14.2919 19.071Z" fill="white"/>
<path d="M14.2919 16.6069C13.8797 15.5773 12.0218 15.4761 12.0218 15.4761H1.43945V15.988H12.0218C12.0218 15.988 14.0321 16.2975 14.2919 17.7321C14.5516 16.2919 16.562 15.988 16.562 15.988H27.037V15.4761H16.562C16.562 15.4761 14.7041 15.5773 14.2919 16.6069Z" fill="white"/>
<path d="M14.2919 14.4127C13.8797 13.3831 12.0218 13.2819 12.0218 13.2819H1.43945V13.7938H12.0218C12.0218 13.7938 14.0321 14.1033 14.2919 15.5379C14.5516 14.0976 16.562 13.7938 16.562 13.7938H27.037V13.2819H16.562C16.562 13.2819 14.7041 13.3831 14.2919 14.4127Z" fill="white"/>
<path d="M14.2919 12.6011C13.8797 11.5715 12.0218 11.4702 12.0218 11.4702H1.43945V11.9822H12.0218C12.0218 11.9822 14.0321 12.2916 14.2919 13.7263C14.5516 12.286 16.562 11.9822 16.562 11.9822H27.037V11.4702H16.562C16.562 11.4702 14.7041 11.5715 14.2919 12.6011Z" fill="white"/>
<path d="M22.3441 18.2494C22.3441 19.4983 21.3276 20.511 20.074 20.511C18.8204 20.511 17.804 19.4983 17.804 18.2494C17.804 17.0004 18.8204 15.9877 20.074 15.9877C21.3276 15.9877 22.3441 17.0004 22.3441 18.2494Z" fill="white"/>
<path d="M3.69798 26.2721V28.2581H2.78882V23.7854H3.69798V25.5407H5.88899V23.7854H6.79814V28.2581H5.88899V26.2721H3.69798Z" fill="white"/>
<path d="M12.129 28.2469H11.1916L9.64435 24.7081L8.0858 28.2469H7.15405L9.10789 23.7742H10.1582L12.1177 28.2469H12.129ZM10.9431 26.5141V27.2342H8.3512V26.5141H10.9431Z" fill="white"/>
<path d="M15.1385 23.7968H16.138L14.3253 26.5817V28.2582H13.4218V26.5817L11.6091 23.7968H12.6086L13.8736 25.7152L15.1385 23.7968Z" fill="white"/>
<path d="M18.6903 23.6786C19.4131 23.6786 19.9891 23.898 20.4126 24.3312C20.8361 24.77 21.0507 25.3327 21.0507 26.019C21.0507 26.7054 20.8361 27.2793 20.4126 27.7125C19.9891 28.1457 19.4131 28.3651 18.6903 28.3651C17.9674 28.3651 17.3971 28.1457 16.9679 27.7125C16.5388 27.2793 16.3298 26.711 16.3298 26.019C16.3298 25.327 16.5444 24.7644 16.9679 24.3312C17.3971 23.8924 17.9674 23.6786 18.6903 23.6786ZM18.6903 24.41C18.2554 24.41 17.911 24.5619 17.6625 24.8657C17.414 25.1695 17.2842 25.5577 17.2842 26.0247C17.2842 26.4916 17.4084 26.8967 17.6625 27.1949C17.911 27.4987 18.2554 27.6506 18.6903 27.6506C19.1251 27.6506 19.4695 27.4987 19.7236 27.1949C19.9778 26.8911 20.102 26.5029 20.102 26.0247C20.102 25.5464 19.9778 25.1639 19.7236 24.8657C19.4695 24.5619 19.1251 24.41 18.6903 24.41Z" fill="white"/>
<path d="M22.6433 25.0288V28.2581H21.7341V23.7854H22.8296L24.8964 27.0148V23.7854H25.8056V28.2581H24.7044L22.6376 25.0288H22.6433Z" fill="white"/>
<path d="M21.689 18.255C21.689 19.1551 20.9549 19.8809 20.0514 19.8809C19.1479 19.8809 18.4138 19.1495 18.4138 18.255C18.4138 17.3604 19.1479 16.6234 20.0514 16.6234C20.9549 16.6234 21.689 17.3548 21.689 18.255Z" fill="#ABCD03"/>
<path d="M17.4482 9.98487C17.4482 9.98487 19.0237 7.32373 25.066 6.19289C25.066 6.19289 19.7465 5.60216 17.4482 9.98487Z" fill="white" stroke="white" stroke-width="5.23511"/>
<path d="M20.0741 14.9132C20.0741 14.9132 19.1988 15.8359 18.781 16.556C18.3687 17.2762 17.3862 18.7671 15.63 17.8894C13.8738 17.0174 12.4846 13.7261 12.0668 12.7022C11.6545 11.6726 11.4456 9.46719 11.3439 8.69641C11.2423 7.92564 11.0842 5.82149 8.7633 5.00008C6.44241 4.17868 3.91258 6.08029 4.3248 8.39261C4.73703 10.7049 5.7196 11.4251 7.47015 11.577C9.22635 11.7289 9.58775 11.4757 10.2089 12.7078C10.8301 13.9399 9.63857 15.3296 8.40189 15.4815C7.16521 15.6334 5.2509 15.8415 2.87919 14.4013C0.51312 12.961 -0.209688 9.72599 0.0500716 7.36303C0.309831 5.00008 1.95874 1.66382 6.03583 0.842415C6.03583 0.842415 10.5251 -0.029626 13.2639 2.64276C15.997 5.31514 15.1218 9.21964 15.1218 9.21964C15.1218 9.21964 14.67 10.9581 16.5674 12.6122C18.2219 14.0524 20.0798 14.9245 20.0798 14.9245L20.0741 14.9132Z" fill="white"/>
<path d="M15.9461 11.0592C15.9461 11.0592 15.2741 6.28268 18.5776 4.43171C21.881 2.58073 23.8913 4.07164 25.1337 3.66093C26.3703 3.25023 26.2687 3.04207 26.6301 2.58073C26.6301 2.58073 26.7826 2.42882 27.0423 3.81284C27.3021 5.20248 27.5562 9.05071 25.2861 11.0536C23.0161 13.0565 19.8651 13.3153 15.9461 11.0536V11.0592Z" fill="white"/>
<path d="M9.72901 13.0285C9.72901 13.0285 9.42408 12.1171 8.43022 12.1902C7.43636 12.269 4.20631 12.3196 3.74326 8.62331C3.28021 4.93823 6.70225 4.29686 6.70225 4.29686C6.70225 4.29686 11.44 3.36856 11.9765 8.62331C12.3605 12.4153 12.9986 13.7149 13.919 15.1608C14.8395 16.6067 15.7769 17.5575 16.6973 17.5575C17.6178 17.5575 18.2898 16.3029 18.2898 16.3029C18.2898 16.3029 18.5947 15.6953 19.1312 15.0877C19.1312 15.0877 16.3811 13.6418 15.4607 12.3478C14.5402 11.0538 14.3877 10.5981 14.6193 8.46578C14.8508 6.33913 14.0828 2.22647 9.57654 1.46695C5.06464 0.7018 2.16211 2.68218 1.01579 5.95655C-0.130543 9.23093 0.976257 14.2831 6.13756 14.9358C10.3445 15.4646 9.72901 13.0342 9.72901 13.0342V13.0285Z" fill="#ABCD03"/>
<path d="M16.5392 10.7106C16.5392 10.7106 15.9802 6.85673 18.7584 5.03388C20.9777 3.58236 23.4906 4.24623 23.4906 4.24623C23.4906 4.24623 25.4388 4.75821 26.4496 3.66675C26.4496 3.66675 27.7145 9.15217 23.8746 11.3688C20.6728 13.2198 16.5392 10.7106 16.5392 10.7106Z" fill="#009944"/>
<path d="M17.3413 9.77645C17.3413 9.77645 17.3413 10.1365 17.6519 9.92835C17.9625 9.72019 19.25 7.51477 25.0833 6.33329C25.0833 6.33329 25.4955 6.12513 24.7727 6.02386C24.0499 5.92259 19.5606 5.92259 17.3413 9.77082V9.77645Z" fill="white"/>
<path d="M165.082 11.4657C165.703 9.96913 165.545 8.26443 165.545 8.26443C165.386 4.39369 162.23 2.38519 162.23 2.38519C159.644 0.528582 156.589 1.09682 156.589 1.09682C152.862 1.76632 151.201 4.86066 151.201 4.86066C149.18 8.31507 150.688 11.5163 150.688 11.5163H144.939V7.44303C144.939 4.96755 142.612 4.44996 142.612 4.44996H121.538V11.3644H138.055V14.1493H131.945V21.5251H130.443V14.1999H123.503V21.4745H120.601V2.74526H113.92V5.11946H111.227V8.7314C110.656 6.66663 108.844 5.01819 108.844 5.01819C104.445 1.25435 99.7804 3.98299 99.7804 3.98299C94.8111 6.92543 95.8444 12.0339 95.8444 12.0339H94.2407V3.41476H87.6112V5.89023H82.8508V4.1349H76.1197V5.89023H70.1678V12.5965H71.252C69.3377 15.6909 70.1114 19.2015 70.1114 19.2015C71.1504 23.6911 74.6176 25.5477 74.6176 25.5477C76.3795 26.6279 78.7625 26.7855 78.7625 26.7855C85.2339 26.8867 87.6169 21.8852 87.6169 21.8852V28.9515H94.2464V18.8358H96.268V28.4339H145.978V21.4688H144.939V18.4758H146.289V23.016H162.134V29.8292H169.017V18.4814H170V11.4657H165.082ZM79.4401 19.7135C78.1526 19.7135 77.1136 18.6783 77.1136 17.3899C77.1136 16.1016 78.1526 15.0664 79.4401 15.0664C80.7276 15.0664 81.7723 16.1072 81.7723 17.3899C81.7723 18.6727 80.7276 19.7135 79.4401 19.7135ZM96.7367 16.7767V14.7119C96.9964 15.4321 98.4477 16.7767 98.4477 16.7767H96.7367ZM102.017 10.8918C102.017 10.0085 102.734 9.294 103.62 9.294C104.507 9.294 105.224 10.0085 105.224 10.8918C105.224 11.7751 104.507 12.4896 103.62 12.4896C102.734 12.4896 102.017 11.7751 102.017 10.8918ZM113.926 21.5757H102.897V18.6839C109.73 18.9934 111.232 13.0072 111.232 13.0072V18.217H113.926V21.5701V21.5757ZM157.831 9.91287C157.148 9.91287 156.589 9.36152 156.589 8.67514C156.589 7.98876 157.148 7.4374 157.831 7.4374C158.514 7.4374 159.073 7.99438 159.073 8.67514C159.073 9.35589 158.52 9.91287 157.831 9.91287Z" fill="#B5B5B6"/>
<path d="M164.455 10.6217C165.076 9.12514 164.918 7.42044 164.918 7.42044C164.765 3.5497 161.603 1.54119 161.603 1.54119C159.017 -0.315412 155.962 0.252821 155.962 0.252821C152.235 0.922324 150.575 4.01666 150.575 4.01666C148.559 7.4767 150.061 10.6723 150.061 10.6723H144.312V6.59903C144.312 4.12356 141.986 3.60596 141.986 3.60596H120.911V10.5148H137.429V13.2997H131.319V20.6755H129.817V13.3503H122.876V20.6248H119.974V1.90689H113.294V4.28109H110.6V7.89303C110.03 5.83389 108.217 4.17982 108.217 4.17982C103.818 0.415978 99.1593 3.14462 99.1593 3.14462C94.19 6.08706 95.2234 11.1955 95.2234 11.1955H93.6196V2.57639H86.9901V5.05186H82.2298V3.29653H75.4986V5.05186H69.5467V11.7581H70.6309C68.7166 14.8525 69.4903 18.3632 69.4903 18.3632C70.5236 22.8528 73.9965 24.7094 73.9965 24.7094C75.7584 25.7952 78.1414 25.9471 78.1414 25.9471C84.6128 26.0484 86.9958 21.0412 86.9958 21.0412V28.1131H93.6253V18.0031H95.6469V27.6012H145.351V20.6361H144.312V17.643H145.662V22.1833H161.507V28.9964H168.391V17.643H169.373V10.6273H164.455V10.6217ZM78.8134 18.8751C77.5259 18.8751 76.4868 17.8399 76.4868 16.5572C76.4868 15.2744 77.5259 14.2336 78.8134 14.2336C80.1009 14.2336 81.1455 15.2744 81.1455 16.5572C81.1455 17.8399 80.1009 18.8751 78.8134 18.8751ZM96.1099 15.9383V13.8735C96.3697 14.5937 97.8153 15.9383 97.8153 15.9383H96.1099ZM101.384 10.0534C101.384 9.17015 102.101 8.45564 102.988 8.45564C103.874 8.45564 104.597 9.17015 104.597 10.0534C104.597 10.9367 103.874 11.6569 102.988 11.6569C102.101 11.6569 101.384 10.9424 101.384 10.0534ZM113.294 20.7374H102.265V17.8512C109.098 18.1606 110.6 12.1745 110.6 12.1745V17.3842H113.294V20.7374ZM157.204 9.0745C156.521 9.0745 155.962 8.52315 155.962 7.83677C155.962 7.15039 156.515 6.59903 157.204 6.59903C157.893 6.59903 158.446 7.15601 158.446 7.83677C158.446 8.51752 157.893 9.0745 157.204 9.0745Z" fill="white"/>
<path d="M142.782 22.1831V6.62697C142.782 6.62697 142.652 5.15857 141.602 5.15857H122.459V9.04056H138.92V22.1493H136.689V14.8467H132.895V22.245H128.281V14.9086H124.419V22.1774H121.409V26.0594H143.827V22.1774H142.782V22.1831Z" fill="#ED6D46"/>
<path d="M167.854 16.0845V12.2025H161.564C162.676 11.0942 163.371 9.55829 163.371 7.86484C163.371 4.47795 160.615 1.73242 157.216 1.73242C153.816 1.73242 151.06 4.47795 151.06 7.86484C151.06 9.55829 151.749 11.0886 152.862 12.2025H145.594V16.0845H150.501V16.7709H147.226V20.6529H163.038V27.4379H166.838V16.7765H163.631V16.0902H167.849L167.854 16.0845ZM157.216 5.09681C158.752 5.09681 160 6.34018 160 7.87047C160 9.40076 158.752 10.6441 157.216 10.6441C155.68 10.6441 154.437 9.40076 154.437 7.87047C154.437 6.34018 155.68 5.09681 157.216 5.09681ZM159.836 16.7709H154.307V16.0845H159.836V16.7709Z" fill="#ED6D46"/>
<path d="M83.3818 10.2558H86.4537V6.60451H80.7333V4.82104H77.0685V6.60451H71.0658V10.2558H74.0756C72.133 11.6792 70.8738 13.9747 70.8738 16.5627C70.8738 20.8835 74.3918 24.3885 78.7287 24.3885C83.0655 24.3885 86.5836 20.8835 86.5836 16.5627C86.5836 13.9747 85.3243 11.6849 83.3818 10.2558ZM78.8585 20.4728C76.6901 20.4728 74.9283 18.7231 74.9283 16.5627C74.9283 14.4022 76.6901 12.6525 78.8585 12.6525C81.027 12.6525 82.7888 14.4079 82.7888 16.5627C82.7888 18.7174 81.0326 20.4728 78.8585 20.4728Z" fill="#ED6D46"/>
<path d="M94.5685 12.7369H92.0838V4.12903H88.5432V26.5208H92.0838V16.4726H94.5685V12.7369Z" fill="#ED6D46"/>
<path d="M102.999 3.73535C99.5037 3.73535 96.6689 6.55964 96.6689 10.0422C96.6689 13.5247 99.5037 16.349 102.999 16.349C106.495 16.349 109.324 13.5247 109.324 10.0422C109.324 6.55964 106.489 3.73535 102.999 3.73535ZM102.999 13.1703C101.26 13.1703 99.8538 11.7694 99.8538 10.0366C99.8538 8.30372 101.26 6.90846 102.999 6.90846C104.738 6.90846 106.139 8.30935 106.139 10.0366C106.139 11.7638 104.733 13.1703 102.999 13.1703Z" fill="#ED6D46"/>
<path d="M114.864 3.47656V5.86764H112.159V9.56397H114.864V12.152H112.159V15.8483H114.864V22.3464H100.724V17.5192H97.1943V22.3464V25.9527H100.724H114.864H118.483V22.3464V3.47656H114.864Z" fill="#ED6D46"/>
<path d="M64.7804 5.06879L64.2778 4.4668H57.6257L58.1113 5.1138H43.3051L43.7907 4.4668H37.1329L36.6304 5.06879C34.3547 7.77493 33.1519 11.3812 33.1519 15.4995V16.3378C33.1519 20.4842 34.3547 24.1074 36.6304 26.8079L37.1329 27.4099H43.7568L41.803 24.7432C40.0863 22.4027 39.2505 19.6853 39.2505 16.4447V15.3983C39.2505 12.1464 40.0806 9.4515 41.7973 7.15043L42.2886 6.49218V10.7174H45.2476C44.3836 11.0943 43.4067 11.4881 42.379 11.8876L40.6736 12.5458L41.8481 14.9538H40.0863V20.5517H47.7097V26.8698H53.7462V20.5517H61.347V14.9538H59.5795L60.771 12.5515L59.0487 11.8876C58.021 11.4938 57.0441 11.0943 56.1801 10.7174H59.1391V6.49218L59.6304 7.15043C61.3414 9.4515 62.1771 12.1464 62.1771 15.3983V16.4447C62.1771 19.6853 61.3414 22.4027 59.6247 24.7432L57.6709 27.4099H64.2947L64.7973 26.8079C67.073 24.1018 68.2758 20.4842 68.2758 16.3378V15.4995C68.2758 11.3812 67.073 7.77493 64.7973 5.06879H64.7804ZM51.8432 14.9482H49.6409C50.0757 14.74 50.4371 14.5431 50.7364 14.3631C51.0527 14.5543 51.4141 14.7456 51.8432 14.9482Z" fill="#B5B5B6"/>
<path d="M63.9222 4.1911L63.4196 3.58911H56.7675L57.2532 4.23611H42.4469L42.9325 3.58911H36.2748L35.7722 4.1911C33.4965 6.89724 32.2937 10.5036 32.2937 14.6218V15.4601C32.2937 19.6065 33.4965 23.2297 35.7722 25.9302L36.2748 26.5322H42.8986L40.9448 23.8655C39.2281 21.525 38.3924 18.8076 38.3924 15.567V14.5206C38.3924 11.2687 39.2225 8.57381 40.9392 6.27275L41.4304 5.6145V9.83968H44.3894C43.5255 10.2166 42.5485 10.6105 41.5208 11.0099L39.8154 11.6682L40.99 14.0761H39.2281V19.6741H46.8515V25.9921H52.8881V19.6741H60.4889V14.0761H58.7214L59.9129 11.6738L58.1906 11.0099C57.1628 10.6161 56.1859 10.2166 55.3219 9.83968H58.2809V5.6145L58.7722 6.27275C60.4832 8.57381 61.319 11.2687 61.319 14.5206V15.567C61.319 18.8076 60.4832 21.525 58.7666 23.8655L56.8127 26.5322H63.4366L63.9391 25.9302C66.2149 23.2241 67.4177 19.6065 67.4177 15.4601V14.6218C67.4177 10.5036 66.2149 6.89724 63.9391 4.1911H63.9222ZM50.9851 14.0705H48.7828C49.2176 13.8623 49.579 13.6654 49.8783 13.4854C50.1945 13.6767 50.5559 13.8679 50.9851 14.0705Z" fill="white"/>
<path d="M36.6928 15.5615C36.6928 18.7402 37.4044 21.902 39.5671 24.8501H37.0486C34.9705 22.3803 33.9597 19.1171 33.9597 15.4546V14.6163C33.9597 10.9537 34.9649 7.73559 37.0486 5.26575H39.5671C37.5116 8.02815 36.6928 11.1675 36.6928 14.515V15.5615Z" fill="#ED6D46"/>
<path d="M58.7892 15.7471V17.9863H51.1884V24.3044H48.523V17.9863H40.8997V15.7471H58.7892ZM43.102 5.91835H56.5812V8.15752H51.2053V8.3263C51.2053 9.31087 51.6684 9.98037 52.8655 10.5655C54.2321 11.235 55.9939 11.9664 57.5694 12.574L56.5417 14.6444C55.0114 14.0368 53.498 13.3673 52.154 12.7597C50.9343 12.2139 50.1155 11.7132 49.9065 11.3137H49.8839C49.675 11.7132 48.7489 12.2533 47.5292 12.799C46.1852 13.4066 44.6718 14.0762 43.1415 14.6838L42.1137 12.5684C43.6892 11.9607 45.4511 11.2294 46.8176 10.5599C48.0148 9.97474 48.4778 9.30524 48.4778 8.32068V8.1519H43.102V5.91272V5.91835Z" fill="#ED6D46"/>
<path d="M62.9907 14.515C62.9907 11.1675 62.1719 8.02815 60.1165 5.26575H62.635C64.7131 7.73559 65.7239 10.9593 65.7239 14.6163V15.4546C65.7239 19.1171 64.7131 22.3803 62.635 24.8501H60.1165C62.2792 21.902 62.9907 18.7402 62.9907 15.5615V14.515Z" fill="#ED6D46"/>
</g>
<defs>
<clipPath id="clip0_508_5">
<rect width="170" height="30" fill="white"/>
</clipPath>
</defs>
</svg>
