<svg width="51" height="100" viewBox="0 0 51 100" fill="none" xmlns="http://www.w3.org/2000/svg">
<path fill-rule="evenodd" clip-rule="evenodd" d="M30.152 84.121C26.682 82.2373 19.5037 80.0433 11.5015 87.5007C15.7441 91.8221 26.8149 95.349 32.0994 86.0572C33.3962 87.2796 34.7606 88.4435 36.1915 89.5386C36.0779 89.0488 35.9824 88.5454 35.9083 88.0297C33.2493 85.8979 30.8324 83.5239 28.677 80.956C30.7359 80.106 38.4022 76.141 36.0252 64.9199C31.314 66.0515 24.495 71.8326 27.1698 79.0726C25.1597 76.436 23.4131 73.6169 21.9515 70.6569C21.9267 70.6074 21.9031 70.5567 21.8772 70.506C23.7593 69.8644 30.3778 66.9043 29.0328 57.3011C25.3523 57.9176 19.9857 61.6587 20.3303 67.0303C19.3639 64.6263 18.5789 62.1469 17.9831 59.6111C19.7041 59.1756 25.3526 57.1248 24.9484 49.0302C22.1836 49.2419 18.1432 51.3845 17.1146 54.9841C16.8362 52.9999 16.6715 50.9898 16.6273 48.965C18.2163 48.9249 23.0816 48.2562 24.3164 41.6744C21.9854 41.3016 18.1955 42.2908 16.683 45.1136C16.792 43.0324 17.026 40.9703 17.3793 38.9375C18.7621 39.2297 22.7531 39.5748 25.0717 34.5614C23.1959 33.7536 19.7611 33.8024 17.9854 35.9721C18.4806 33.8671 19.1065 31.8003 19.8574 29.782C21.0228 30.2736 24.224 31.1427 26.9745 27.4309C25.5504 26.4326 22.6846 25.8786 20.8258 27.3682C21.1009 26.7284 21.3883 26.0965 21.6892 25.4692C22.3024 24.1918 22.9685 22.9382 23.6841 21.7137C24.6185 22.4138 27.1428 23.7866 30.2892 21.2548C29.2469 20.0255 26.7518 18.8599 24.775 19.9339C25.7171 18.465 26.7346 17.04 27.8253 15.6679C28.7293 16.4209 30.9889 17.7454 34.0664 15.6315C33.2325 14.4843 31.2228 13.2993 29.3779 13.8046C30.2917 12.7603 31.2505 11.7475 32.2509 10.774C33.7475 10.9074 37.2724 10.6784 38.9862 5.98615C36.6599 5.20785 32.0987 5.91702 31.5992 9.99614C31.2218 10.3623 30.85 10.7341 30.485 11.1104C31.1918 9.26206 31.4927 6.26412 28.4005 3.01426C26.3827 5.03656 24.7645 10.2142 28.9572 12.753C27.7122 14.1488 26.546 15.6076 25.462 17.1194C25.804 15.3118 25.6104 12.4075 22.0472 9.95743C20.6048 12.1766 20.1229 17.1701 24.3769 18.6931C23.1858 20.4898 22.1072 22.354 21.1469 24.2779C21.1184 22.5054 20.382 19.5811 16.2081 18.0322C15.3748 20.4639 16.1014 25.2756 20.4526 25.7219C19.4348 27.924 18.57 30.1981 17.8641 32.525C17.4459 30.7819 16.0181 27.743 11.1376 27.2879C10.9574 29.9536 12.9847 34.5879 17.4761 33.863C16.7667 36.4456 16.252 39.0922 15.9423 41.7794C15.1097 40.05 12.7844 36.864 7.16569 37.7301C7.69373 40.6579 11.148 45.1148 15.8089 43.0813C15.7263 43.9946 15.6673 44.9136 15.6331 45.8348C15.5568 47.8833 15.5999 49.9204 15.7589 51.9384C14.4781 50.2025 11.0549 46.8852 4.68887 49.2821C5.99495 52.5034 11.0371 56.7773 15.8788 53.2549C16.2164 56.5014 16.8536 59.6893 17.7735 62.7813C15.978 61.0061 11.2845 57.651 4.19254 61.7488C6.36675 65.2997 13.1883 69.3633 18.1997 64.1426C18.9813 66.5331 19.9319 68.8627 21.0425 71.1111C21.4959 72.0287 21.9775 72.934 22.4828 73.8245C20.0173 71.9742 13.9746 68.8495 6.25123 74.7335C9.39715 78.6478 18.2144 82.4673 23.3718 75.3287C25.3041 78.4754 27.5731 81.4272 30.1475 84.1255L30.152 84.121Z" fill="#FFCB00"/>
</svg>
