<svg width="24" height="24" viewBox="0 0 24 24" fill="none" xmlns="http://www.w3.org/2000/svg">
<path fill-rule="evenodd" clip-rule="evenodd" d="M20.2105 11.9996C20.2105 10.5716 19.8741 9.22168 19.278 8.02178H19.2772L20.7556 6.55348C21.6818 8.15914 22.211 10.0182 22.211 11.9996C22.211 18.0741 17.2384 22.9992 11.1055 22.9992C4.97252 22.9992 0 18.0741 0 11.9996C0 5.92511 4.97252 1 11.1055 1C14.2074 1 17.0121 2.25989 19.0269 4.29104L17.6138 5.69461C15.9608 4.02106 13.6559 2.9822 11.1055 2.9822C6.07717 2.9822 2.00128 7.01923 2.00128 11.9996C2.00128 16.98 6.07797 21.017 11.1063 21.017C16.1346 21.017 20.2105 16.98 20.2105 11.9996ZM11.114 12.7326L21.585 2.36133L22.9997 3.76332L11.114 15.5358L11.11 15.5318L11.1052 15.5358L5.94141 10.4212L7.35609 9.01919L8.39858 10.0517L8.40336 10.0478L11.114 12.7326Z" fill="#FF8522"/>
</svg>
