<svg width="24" height="24" viewBox="0 0 24 24" fill="none" xmlns="http://www.w3.org/2000/svg">
<path d="M22.2673 21.0673L18.4743 17.2743C20.0078 15.4321 20.7721 13.0696 20.6082 10.6782C20.4444 8.28686 19.365 6.05071 17.5945 4.43484C15.8241 2.81897 13.4989 1.94777 11.1026 2.00242C8.70625 2.05708 6.42321 3.03339 4.7283 4.7283C3.03339 6.42321 2.05708 8.70625 2.00242 11.1026C1.94777 13.4989 2.81897 15.8241 4.43484 17.5945C6.05071 19.365 8.28686 20.4444 10.6782 20.6082C13.0696 20.7721 15.4321 20.0078 17.2743 18.4743L21.0683 22.2683L22.2673 21.0673ZM11.3233 18.9343C9.81733 18.9345 8.3451 18.4881 7.09283 17.6515C5.84056 16.815 4.8645 15.6258 4.28809 14.2345C3.71168 12.8432 3.56081 11.3122 3.85457 9.83514C4.14833 8.35808 4.87351 7.0013 5.93841 5.93641C7.0033 4.87151 8.36008 4.14633 9.83714 3.85257C11.3142 3.55881 12.8452 3.70968 14.2365 4.28609C15.6278 4.8625 16.817 5.83856 17.6535 7.09083C18.4901 8.3431 18.9365 9.81533 18.9363 11.3213C18.9342 13.3398 18.1314 15.2749 16.7042 16.7022C15.2769 18.1294 13.3418 18.9322 11.3233 18.9343Z" fill="black"/>
</svg>
