<svg width="24" height="24" viewBox="0 0 24 24" fill="none" xmlns="http://www.w3.org/2000/svg">
<g clip-path="url(#clip0_146_4594)">
<path fill-rule="evenodd" clip-rule="evenodd" d="M9.81092 3.85015C10.4369 3.36366 11.2072 3.09961 12.0001 3.09961C12.793 3.09961 13.5633 3.36368 14.1893 3.8502M14.1894 3.85026L19.5219 7.99408C19.5221 7.99418 19.5222 7.99428 19.5223 7.99438C20.3917 8.6694 20.9001 9.70797 20.9001 10.8081V18.0015C20.9001 18.7704 20.5944 19.5076 20.0504 20.0511C19.5065 20.5945 18.769 20.8996 18.0001 20.8996H6.0001C5.23124 20.8996 4.4937 20.5945 3.94978 20.0511C3.40583 19.5076 3.1001 18.7704 3.1001 18.0015V10.8082C3.1001 10.8082 3.1001 10.8081 3.1001 10.8081C3.09991 10.2653 3.22385 9.72959 3.46243 9.24197C3.70108 8.75423 4.0481 8.3275 4.47692 7.99433L4.47692 7.99433L9.81079 3.85026C9.81083 3.85022 9.81088 3.85019 9.81092 3.85015M12.0001 4.89961C11.6071 4.89961 11.2254 5.03051 10.9154 5.27146L10.9153 5.27157L5.58128 9.41574C5.58127 9.41574 5.58127 9.41574 5.58127 9.41574C5.36898 9.58068 5.1973 9.79184 5.07927 10.0331C4.96124 10.2743 4.89997 10.5392 4.9001 10.8077L4.9001 10.8081L4.9001 18.0015C4.9001 18.2924 5.01579 18.5717 5.22199 18.7777C5.42821 18.9837 5.70809 19.0996 6.0001 19.0996H18.0001C18.2921 19.0996 18.572 18.9837 18.7782 18.7777C18.9844 18.5717 19.1001 18.2924 19.1001 18.0015V10.8081C19.1001 10.2639 18.8486 9.75004 18.4182 9.41599L18.4179 9.41569L13.0849 5.27152L13.0848 5.27146C12.7748 5.03051 12.3931 4.89961 12.0001 4.89961Z" fill="#FF8522"/>
<path d="M12 15L12 19" stroke="#FF8522" stroke-width="1.8" stroke-linecap="round"/>
</g>
<defs>
<clipPath id="clip0_146_4594">
<rect width="24" height="24" fill="white"/>
</clipPath>
</defs>
</svg>
